<?xml version="1.0" encoding="utf-8"?>
<!-- Generator: Adobe Illustrator 16.0.0, SVG Export Plug-In . SVG Version: 6.00 Build 0)  -->
<!DOCTYPE svg PUBLIC "-//W3C//DTD SVG 1.1//EN" "http://www.w3.org/Graphics/SVG/1.1/DTD/svg11.dtd">
<svg version="1.1" id="Calque_1" xmlns="http://www.w3.org/2000/svg" xmlns:xlink="http://www.w3.org/1999/xlink" x="0px" y="0px"
	 width="222.391px" height="78.074px" viewBox="0 0 222.391 78.074" enable-background="new 0 0 222.391 78.074"
	 xml:space="preserve">
<g>
	<g>
		<path d="M45.782,6.725c-10.467-0.308-22.852,0.436-29.441,9.709c-2.098,2.955-1.931,6.891-3.701,9.631
			c-0.972,1.503-6.873-5.483-7.294-5.875c-1.063-0.985-2.249-1.837-3.384-2.734c-1.372-1.085-0.971-5.545-0.935-7.098
			c0.066-2.82-0.969-5.727,2.342-6.616c3.609-0.97,7.487-1.057,11.203-1.197c7.682-0.29,15.372-0.481,23.059-0.563
			c16.293-0.171,32.065,2.258,48.075,5.022c9.126,1.575,17.287,3.373,26.653,2.153c14.06-1.832,27.761-5.641,41.866-7.252
			c15.358-1.756,30.822-1.435,46.135,0.545c6.445,0.833,12.96,2.499,19.461,2.764c2.225,0.09,1.641,5.832,1.692,7.428
			c0.14,4.398,0.037,6.604-4.621,8.377c-2.48,0.944-7.338,8.439-8.739,4.234c-1.461-4.387-4.963-8.126-8.319-11.151
			c-7.936-7.146-19.348-8.278-29.54-8.384c-11.561-0.121-24.275,1.349-35.158,5.398c-3.55,1.322-7.582,3.614-9.896,6.729
			c-2.531,3.408-2.329,6.892-2.401,10.968c-0.044,2.508-0.898,9.912-4.293,5.311c-1.254-1.694-2.706-3.15-4.271-4.561
			c-2.688-2.423-5.778-3.111-9.224-2.206c-2.985,0.784-4.756,3.54-6.272,5.971c-0.535,0.875-1.132,1.711-1.788,2.506
			c-2.013,2.485-2.47-3.319-2.491-3.667c-0.126-1.949-0.103-3.915-0.446-5.847c-1.692-9.485-8.247-11.427-16.424-14.479
			C67.713,8.144,56.255,7.189,45.782,6.725c-0.469-0.021-0.467,0.706,0,0.728C55.878,7.9,66.089,9.138,75.804,12.008
			c3.771,1.115,7.642,2.619,11.152,4.363c5.594,2.78,6.561,9.133,6.77,14.776c0.089,2.333,0.274,8.61,3.779,5.204
			c2.609-2.538,3.354-5.787,6.663-7.823c6.351-3.913,11.679,3.505,15.07,7.674c3.718,4.569,4.267-5.809,4.325-7.386
			c0.089-2.18-0.057-4.313,0.274-6.486c0.511-3.365,3.5-5.805,6.063-7.674c4.624-3.372,10.614-4.633,16.12-5.713
			c11.771-2.312,24.025-3.411,35.957-1.697c11.475,1.65,23.487,9.008,26.255,20.977c0.046,0.195,0.262,0.302,0.449,0.254
			c2.338-0.609,3.764-2.583,5.286-4.352c2.02-2.35,5.46-2.192,7.346-4.274c1.262-1.392,1.086-3.188,1.046-4.999
			c-0.078-3.459-0.274-6.876-0.963-10.272c-0.043-0.211-0.264-0.28-0.446-0.252c-4.67,0.671-10.651-1.044-15.219-1.875
			c-4.069-0.741-8.264-1.118-12.37-1.564c-10.482-1.141-21.104-1.079-31.616-0.385c-9.78,0.644-19.404,2.273-29.01,4.164
			c-8.736,1.72-17.563,3.913-26.486,4.342c-6.345,0.305-12.316-1.342-18.502-2.388c-9.834-1.661-19.639-3.465-29.562-4.554
			C47.653,0.91,37.039,1.187,26.467,1.457C17.831,1.678,8.549,1.124,0.262,3.922C0.064,3.988-0.031,4.167,0.009,4.369
			C0.8,8.327,0.236,12.528,0.65,16.552C0.8,18,2.59,18.87,3.562,19.628c2.797,2.183,4.735,4.963,7.099,7.543
			c0.416,0.452,1.391,0.833,1.933,0.291c0.039-0.039,1.507-1.313,1.529-1.75c0.231-4.714,2.179-8.653,5.441-12.037
			c6.199-6.432,17.992-6.465,26.219-6.223C46.252,7.466,46.251,6.739,45.782,6.725z"/>
		<g>
			<path d="M45.784,8.782c-7.969-0.296-15.01,0.269-22.109,3.349c-5.494,2.411-9.916,8.977-9.916,15.276l-0.804,0.534
				c-0.938,2.411-2.413,0.403-3.35-0.938c-2.011-2.679-4.422-4.957-7.101-6.965c-1.34-1.074-1.474-0.94-1.608-2.951
				c-0.133-1.206-0.133-2.41-0.268-3.483c0-2.546,0.402-5.36-0.268-7.638C6.391,3.69,14.429,3.958,20.86,3.69
				c7.503-0.269,14.873-0.404,22.376-0.404c17.018,0,33.231,3.619,49.981,6.3c1.605,0.268,3.203,1.497,11.985,1.497
				s24.996-4.177,39.602-6.59c14.472-2.278,28.808-2.948,43.279-2.009c5.896,0.401,11.657,1.207,17.553,2.009
				c2.948,0.537,5.762,1.073,8.71,1.341c2.01,0.266,4.823,1.072,6.7,0.535c0.535,2.413,0.802,4.557,0.802,7.103
				c0,1.743,0.535,5.627-0.267,7.235c-0.807,1.474-4.822,2.009-6.434,3.349c-1.74,1.474-4.285,5.628-6.563,5.763
				c-1.073-6.031-6.434-12.061-11.257-15.543c-6.832-4.689-15.275-6.164-23.449-6.433c-7.769-0.269-15.542,0.269-23.313,1.608
				c-7.639,1.341-15.945,2.679-22.107,7.503c-3.485,2.814-5.229,5.226-5.229,9.647c0,3.083,0.067,7.57-0.869,10.521
				c-1.342,4.018-3.685-0.875-5.294-2.615c-2.144-2.279-4.825-5.092-8.039-5.494c-3.217-0.401-6.031,0.938-8.04,3.35
				c-1.07,1.072-3.753,6.833-5.493,6.433c-1.474-0.402-1.342-5.896-1.474-7.506c-0.269-3.483-0.538-5.815-2.211-9.11
				c-2.214-4.357-7.104-5.497-13.603-8.04C73.356,12.239,60.187,9.317,45.784,8.782z"/>
		</g>
		<path d="M45.782,6.725c-10.467-0.308-22.852,0.436-29.441,9.709c-2.098,2.955-1.931,6.891-3.701,9.631
			c-0.972,1.503-6.873-5.483-7.294-5.875c-1.063-0.985-2.249-1.837-3.384-2.734c-1.372-1.085-0.971-5.545-0.935-7.098
			c0.066-2.82-0.969-5.727,2.342-6.616c3.609-0.97,7.487-1.057,11.203-1.197c7.682-0.29,15.372-0.481,23.059-0.563
			c16.293-0.171,32.065,2.258,48.075,5.022c9.126,1.575,17.287,3.373,26.653,2.153c14.06-1.832,27.761-5.641,41.866-7.252
			c15.358-1.756,30.822-1.435,46.135,0.545c6.445,0.833,12.96,2.499,19.461,2.764c2.225,0.09,1.641,5.832,1.692,7.428
			c0.14,4.398,0.037,6.604-4.621,8.377c-2.48,0.944-7.338,8.439-8.739,4.234c-1.461-4.387-4.963-8.126-8.319-11.151
			c-7.936-7.146-19.348-8.278-29.54-8.384c-11.561-0.121-24.275,1.349-35.158,5.398c-3.55,1.322-7.582,3.614-9.896,6.729
			c-2.531,3.408-2.329,6.892-2.401,10.968c-0.044,2.508-0.898,9.912-4.293,5.311c-1.254-1.694-2.706-3.15-4.271-4.561
			c-2.688-2.423-5.778-3.111-9.224-2.206c-2.985,0.784-4.756,3.54-6.272,5.971c-0.535,0.875-1.132,1.711-1.788,2.506
			c-2.013,2.485-2.47-3.319-2.491-3.667c-0.126-1.949-0.103-3.915-0.446-5.847c-1.692-9.485-8.247-11.427-16.424-14.479
			C67.713,8.144,56.255,7.189,45.782,6.725c-0.469-0.021-0.467,0.706,0,0.728C55.878,7.9,66.089,9.138,75.804,12.008
			c3.771,1.115,7.642,2.619,11.152,4.363c5.594,2.78,6.561,9.133,6.77,14.776c0.089,2.333,0.274,8.61,3.779,5.204
			c2.609-2.538,3.354-5.787,6.663-7.823c6.351-3.913,11.679,3.505,15.07,7.674c3.718,4.569,4.267-5.809,4.325-7.386
			c0.089-2.18-0.057-4.313,0.274-6.486c0.511-3.365,3.5-5.805,6.063-7.674c4.624-3.372,10.614-4.633,16.12-5.713
			c11.771-2.312,24.025-3.411,35.957-1.697c11.475,1.65,23.487,9.008,26.255,20.977c0.046,0.195,0.262,0.302,0.449,0.254
			c2.338-0.609,3.764-2.583,5.286-4.352c2.02-2.35,5.46-2.192,7.346-4.274c1.262-1.392,1.086-3.188,1.046-4.999
			c-0.078-3.459-0.274-6.876-0.963-10.272c-0.043-0.211-0.264-0.28-0.446-0.252c-4.67,0.671-10.651-1.044-15.219-1.875
			c-4.069-0.741-8.264-1.118-12.37-1.564c-10.482-1.141-21.104-1.079-31.616-0.385c-9.78,0.644-19.404,2.273-29.01,4.164
			c-8.736,1.72-17.563,3.913-26.486,4.342c-6.345,0.305-12.316-1.342-18.502-2.388c-9.834-1.661-19.639-3.465-29.562-4.554
			C47.653,0.91,37.039,1.187,26.467,1.457C17.831,1.678,8.549,1.124,0.262,3.922C0.064,3.988-0.031,4.167,0.009,4.369
			C0.8,8.327,0.236,12.528,0.65,16.552C0.8,18,2.59,18.87,3.562,19.628c2.797,2.183,4.735,4.963,7.099,7.543
			c0.416,0.452,1.391,0.833,1.933,0.291c0.039-0.039,1.507-1.313,1.529-1.75c0.231-4.714,2.179-8.653,5.441-12.037
			c6.199-6.432,17.992-6.465,26.219-6.223C46.252,7.466,46.251,6.739,45.782,6.725z"/>
		<g>
			<path d="M9.399,13.24c-0.938-1.208-2.68-2.414-4.423-1.608c-2.009,1.07-1.07,2.547,0.806,2.948
				c1.339,0.267,2.546-0.268,3.618-0.936"/>
		</g>
		<g>
			<path d="M210.388,14.312c2.009-0.668,4.019-2.949,6.428-1.743c2.413,1.206,0,2.679-1.874,2.948
				c-1.205,0.268-2.142-0.269-3.218-0.806"/>
		</g>
		<path d="M9.459,12.592c-0.896-1.098-2.079-1.91-3.526-1.976c-0.99-0.043-2.604,0.723-2.636,1.884
			c-0.028,1.014,0.856,1.582,1.704,1.906c1.509,0.577,3.092-0.054,4.386-0.839c0.399-0.243,0.034-0.873-0.368-0.628
			c-0.882,0.537-1.774,0.943-2.824,0.957c-0.764,0.011-1.916-0.367-2.166-1.177c-0.133-0.433,0.397-0.817,0.679-1.014
			c0.581-0.404,1.299-0.412,1.961-0.257c0.927,0.218,1.694,0.947,2.277,1.661C9.242,13.471,9.754,12.953,9.459,12.592L9.459,12.592z
			"/>
		<path d="M210.288,14.271c1.667-0.618,3.096-1.989,4.933-2.074c0.653-0.031,1.305,0.286,1.805,0.672
			c0.952,0.74-1.054,1.545-1.363,1.661c-1.434,0.538-2.646,0.133-3.946-0.523c-0.419-0.21-0.788,0.418-0.368,0.629
			c1.691,0.853,3.016,1.155,4.839,0.471c0.923-0.347,1.966-1.043,1.759-2.148c-0.218-1.15-2.219-1.599-3.16-1.462
			c-1.748,0.256-3.069,1.473-4.691,2.073C209.661,13.732,209.85,14.436,210.288,14.271L210.288,14.271z"/>
		<path d="M94.385,29.598c-0.339-3.979-0.979-7.841-3.47-11.094c-1.961-2.561-5.492-3.708-8.381-4.813
			c-8.952-3.425-18.078-5.261-27.605-6.313c-10.034-1.109-22.074-1.929-31.438,2.745c-3.879,1.937-6.559,4.918-8.507,8.758
			c-0.706,1.391-0.998,8.167-3.625,7.987c-0.194-0.014-0.367,0.175-0.363,0.363c0.3,12.673,2.991,28.202,11.43,38.229
			c7.245,8.606,17.653,10.558,28.393,10.922c12.644,0.429,24.092-4.461,32.58-13.888c4.5-4.994,6.852-10.904,9.302-17.063
			c0.759-1.902,3.37-6.6,2.813-8.624C94.834,34.334,94.527,32.177,94.385,29.598c-0.026-0.467-0.756-0.469-0.729,0
			c0.111,1.957-0.309,5.181,0.829,6.926c1.073,1.651-1.856,7.109-2.482,8.714c-1.219,3.115-2.519,6.202-3.854,9.269
			c-4.221,9.685-15.101,17.019-24.867,20.011c-8.879,2.719-20.873,1.527-29.498-1.66c-11.4-4.216-16.423-16.014-19.49-26.888
			c-1.562-5.534-2.265-11.285-2.527-17.016c-0.071-1.574,2-1.891,2.344-3.145c0.82-2.98,0.675-4.93,2.136-7.81
			c1.43-2.816,3.811-5.026,6.453-6.669c5.121-3.185,12.248-3.75,18.08-3.934c10.656-0.334,21.631,1.229,31.962,3.765
			c3.739,0.918,7.294,2.35,10.883,3.721c7.001,2.679,9.409,7.349,10.032,14.716C93.696,30.062,94.423,30.066,94.385,29.598z"/>
		<path d="M94.385,29.598c-0.339-3.979-0.979-7.841-3.47-11.094c-1.961-2.561-5.492-3.708-8.381-4.813
			c-8.952-3.425-18.078-5.261-27.605-6.313c-10.034-1.109-22.074-1.929-31.438,2.745c-3.879,1.937-6.559,4.918-8.507,8.758
			c-0.706,1.391-0.998,8.167-3.625,7.987c-0.194-0.014-0.367,0.175-0.363,0.363c0.3,12.673,2.991,28.202,11.43,38.229
			c7.245,8.606,17.653,10.558,28.393,10.922c12.644,0.429,24.092-4.461,32.58-13.888c4.5-4.994,6.852-10.904,9.302-17.063
			c0.759-1.902,3.37-6.6,2.813-8.624C94.834,34.334,94.527,32.177,94.385,29.598c-0.026-0.467-0.756-0.469-0.729,0
			c0.111,1.957-0.309,5.181,0.829,6.926c1.073,1.651-1.856,7.109-2.482,8.714c-1.219,3.115-2.519,6.202-3.854,9.269
			c-4.221,9.685-15.101,17.019-24.867,20.011c-8.879,2.719-20.873,1.527-29.498-1.66c-11.4-4.216-16.423-16.014-19.49-26.888
			c-1.562-5.534-2.265-11.285-2.527-17.016c-0.071-1.574,2-1.891,2.344-3.145c0.82-2.98,0.675-4.93,2.136-7.81
			c1.43-2.816,3.811-5.026,6.453-6.669c5.121-3.185,12.248-3.75,18.08-3.934c10.656-0.334,21.631,1.229,31.962,3.765
			c3.739,0.918,7.294,2.35,10.883,3.721c7.001,2.679,9.409,7.349,10.032,14.716C93.696,30.062,94.423,30.066,94.385,29.598z"/>
		<path d="M9.841,31.924c1.949,20.017,10.515,40.207,32.75,42.785c11.42,1.325,22.626-0.841,32.215-7.324
			c10.7-7.231,15.865-19.081,19.09-31.136c0.121-0.453-0.581-0.646-0.702-0.192c-3.002,11.218-7.515,21.47-16.583,29.064
			c-8.629,7.23-20.117,9.821-31.141,9.155c-11.273-0.682-20.578-5.428-26.738-14.986c-5.181-8.04-7.249-17.982-8.162-27.366
			C10.523,31.462,9.796,31.457,9.841,31.924L9.841,31.924z"/>
		<path d="M208.935,28.028c-1.535-6.919-6.843-12.798-12.776-16.636c-10.608-6.859-24.114-5.753-35.986-4.2
			c-9.644,1.261-18.877,3.63-27.777,7.565c-3.807,1.683-5.832,4.288-7.292,8.11c-1.76,4.61-0.67,10.038-4.274,13.998
			c-0.081,0.09-0.14,0.231-0.092,0.354c0.926,2.409,2.809,4.231,3.723,6.643c0.837,2.207,1.685,4.41,2.55,6.605
			c1.561,3.958,3.019,8.402,5.504,11.889c7.637,10.71,22.529,15.435,35.013,15.287c11.056-0.129,22.524-1.396,30.451-9.907
			c9.38-10.071,12.23-27.064,12.572-40.262c0.005-0.281-0.314-0.445-0.549-0.313c-0.506,0.206-1.009,0.41-1.515,0.613
			c-0.454,0.113-0.261,0.815,0.196,0.702c2.056-0.508,0.993,2.715,0.901,4.082c-0.229,3.37-0.777,6.708-1.437,10.018
			c-1.326,6.665-3.747,13.072-6.883,19.084c-5.299,10.153-15.232,13.948-26.066,14.919c-5.945,0.533-12.091,0.643-17.992-0.305
			c-6.187-0.994-12.336-4.604-17.443-8.127c-8.252-5.696-10.918-14.792-14.323-23.748c-0.771-2.033-4.215-5.792-3.287-7.708
			c2.021-4.167,2.311-7.904,3.273-12.346c2.171-9.987,15.688-12.674,24.348-14.604c12.064-2.688,25.185-4.491,37.303-1.401
			c9.497,2.422,18.981,10.077,21.157,19.883C208.335,28.679,209.037,28.484,208.935,28.028z"/>
		<path d="M128.672,49.217c5.452,20.038,25.228,28.731,44.612,28.856c10.318,0.064,21.836-3.218,28.302-11.737
			c7.263-9.569,7.854-22.925,8.771-34.412c0.035-0.468-0.691-0.465-0.729,0c-0.86,10.814-1.682,21.872-7.048,31.546
			c-5.931,10.688-19.172,13.939-30.523,13.867c-18.632-0.118-37.509-9.292-42.684-28.313
			C129.247,48.573,128.545,48.763,128.672,49.217L128.672,49.217z"/>
		<path d="M93.12,34.957c0.014,0.624-0.266,4.603-1.137,4.444c-0.587-0.109-1.144,0.05-1.666,0.302
			c-1.132,0.548-1.646,1.963-1.797,3.115c-0.424,3.216,4.098,2.927,4.124,0.352c0.011-1.161-0.874-2.074-2.039-1.593
			c-0.433,0.179-1.783,1.61-0.82,1.962c1.351,0.496,3.741-2.247,1.02-2.109c-0.468,0.023-0.468,0.75,0,0.727
			c1.108-0.056-0.285,0.566-0.675,0.689c4.223-1.309,0.054,3.113-0.783,1.096c-0.801-1.939,1.104-4.287,3.102-3.677
			c0.188,0.058,0.398-0.065,0.449-0.255c0.451-1.686,0.99-3.288,0.952-5.052C93.839,34.489,93.11,34.488,93.12,34.957L93.12,34.957z
			"/>
		<path d="M122.878,35.262c-0.377,1.894,0.946,3.985,1.581,5.71c0.484,1.313,0.487,4.219,2.475,4.354
			c1.775,0.123,2.33-1.624,2.088-3.105c-0.242-1.478-1.725-1.555-2.496-0.448c-0.527,0.757-0.014,2.489,1.017,2.546
			c1.113,0.063,2.262-1.229,1.167-2.085c-1.07-0.835-2.892,0.36-2.904,1.61c-0.02,1.625,1.653,1.266,2.507,0.482
			c0.161-0.146,0.115-0.363,0-0.514c-0.955-1.229-2.51-1.664-3.925-0.994c-0.264,0.125-0.207,0.488,0,0.629
			c0.764,0.515,1.291,0.668,2.154,0.305c0.237-0.1,0.385-0.402,0.161-0.609c-0.511-0.475-1.008-0.859-1.648-1.143
			c-0.549-0.245-1.052-0.293-1.401-0.844c-0.406-0.646-0.452-1.557-0.667-2.286c-0.191-0.645-0.509-1.356-0.563-2.028
			c-0.15,0.117-0.304,0.234-0.46,0.351c-0.037-0.012-0.077-0.025-0.118-0.039c0.234,0.406,0.863,0.039,0.63-0.369
			c-0.081-0.137-0.148-0.261-0.317-0.293c-0.213-0.043-0.479,0.098-0.46,0.35c0.107,1.353,0.71,3.023,1.153,4.299
			c0.498,1.43,2.321,1.573,3.338,2.518c0.055-0.202,0.108-0.405,0.162-0.607c-0.533-0.078-1.065-0.156-1.596-0.232
			c0,0.209,0,0.42,0,0.629c1.015-0.48,1.993-0.16,2.781,0.544c0.886-1.381,0.786-1.628-0.307-0.741
			c-0.449-0.857-0.086-1.137,1.09-0.835c0.436,1.425-2.031,2.239-2.523,0.792c-0.183-0.549-0.296-1.128-0.433-1.689
			c-0.449-1.862-2.168-4.125-1.783-6.061C123.671,34.999,122.972,34.802,122.878,35.262L122.878,35.262z"/>
		<path d="M101.516,21.405c0.078-0.375,0.156-0.75,0.233-1.125c-0.239-0.032-0.479-0.064-0.715-0.097
			c0.408,3.256,0.271,6.502,0.244,9.773c-0.005,0.484,0.668,0.449,0.727,0c0.423-3.173,0.414-10.036,4.831-10.223
			c4.54-0.191,4.406,7.866,5.21,10.809c0.105,0.391,0.727,0.318,0.713-0.097c-0.094-2.625-0.641-5.197-0.734-7.82
			c-0.236,0.032-0.476,0.064-0.716,0.097c0.926,3.031,1.854,6.016,3.215,8.883c0.164,0.345,0.67,0.156,0.678-0.183
			c0.062-2.337-0.592-4.514-0.734-6.84c-0.236,0.031-0.476,0.063-0.713,0.096c0.517,2.676,0.826,5.678,2.781,7.736
			c0.237,0.248,0.595,0.04,0.621-0.257c0.141-1.545-0.016-2.975-0.258-4.496c-0.075-0.463-0.77-0.264-0.702,0.194
			c0.31,2.058,0.837,4.067,1.224,6.108c0.086,0.461,0.788,0.266,0.699-0.192c-0.384-2.043-0.911-4.052-1.221-6.11
			c-0.234,0.066-0.468,0.129-0.702,0.194c0.224,1.058,0.334,2.126,0.334,3.202c-0.014-0.311-0.99-1.785-1.189-2.419
			c-0.42-1.345-0.618-2.771-0.888-4.153c-0.075-0.403-0.736-0.309-0.713,0.098c0.138,2.301,0.794,4.527,0.731,6.84
			c0.227-0.062,0.452-0.123,0.679-0.183c-1.335-2.815-2.233-5.74-3.14-8.709c-0.115-0.386-0.729-0.325-0.713,0.096
			c0.092,2.625,0.638,5.197,0.734,7.82c0.237-0.032,0.477-0.064,0.713-0.097c-1.07-3.926-0.699-11.562-6.52-11.317
			c-4.463,0.189-4.546,7.904-4.947,10.925c0.242,0,0.484,0,0.727,0c0.027-3.271,0.164-6.518-0.244-9.773
			c-0.049-0.401-0.57-0.503-0.716-0.097c-0.253,0.729-0.218,0.563-0.256,1.318C100.765,21.873,101.494,21.872,101.516,21.405
			L101.516,21.405z"/>
	</g>
</g>
</svg>
