<?xml version="1.0" encoding="utf-8"?>
<!-- Generator: Adobe Illustrator 16.0.0, SVG Export Plug-In . SVG Version: 6.00 Build 0)  -->
<!DOCTYPE svg PUBLIC "-//W3C//DTD SVG 1.1//EN" "http://www.w3.org/Graphics/SVG/1.1/DTD/svg11.dtd">
<svg version="1.1" id="Calque_1" xmlns="http://www.w3.org/2000/svg" xmlns:xlink="http://www.w3.org/1999/xlink" x="0px" y="0px"
	 width="171.903px" height="48.673px" viewBox="0 0 171.903 48.673" enable-background="new 0 0 171.903 48.673"
	 xml:space="preserve">
<g>
	<g>
		<g>
			<path d="M89.872,6.791c-4.946,7.494-4.992,19.131-0.387,26.792c5.535,9.207,19.143,12.885,28.939,14.26
				c11.455,1.608,24.113,0.6,35.378-1.985c8.831-2.025,16.063-7.159,18.092-16.296c0.072-0.33-0.31-0.744-0.64-0.491
				c-7.309,5.604-19.111,2.299-25.387-3.148c-6.617-5.741-11.203-13.004-18.6-17.938C116.477,0.783,99.703-5.043,89.939,6.702
				c-0.357,0.429,0.256,1.048,0.613,0.616c12.739-15.321,36.336-0.933,46.509,10.385c4.56,5.068,8.82,10.795,15.329,13.42
				c4.813,1.938,12.839,2.483,17.508-0.125c1.576-0.883,0.82-0.143,0.366,1.334c-0.807,2.628-2.542,4.831-4.454,6.735
				c-3.247,3.232-7.919,4.818-12.236,5.951c-9.307,2.439-19.765,2.817-29.329,2.46c-11.16-0.416-23.07-3.641-31.484-11.307
				c-7.386-6.734-7.367-21.02-2.138-28.941C90.932,6.759,90.179,6.324,89.872,6.791z"/>
		</g>
		<g>
			<path d="M92.4,5.839c8.342-4.146,20.456-5.103,28.095,1.365c0.428,0.36,1.047-0.253,0.619-0.616
				c-7.962-6.736-20.435-5.835-29.152-1.501C91.459,5.336,91.9,6.088,92.4,5.839L92.4,5.839z"/>
		</g>
		<g>
			<path d="M91.436,6.999c5.069-3.088,14.632-1.777,20.326-1.432c7.854,0.476,18.772,5.824,23.087,12.518
				c0.304,0.47,1.057,0.034,0.753-0.439c-4.067-6.305-14.087-11.741-21.47-12.712c-4.436-0.581-8.981-0.497-13.441-0.338
				c-2.991,0.108-7.042,0.035-9.696,1.653C90.516,6.539,90.953,7.292,91.436,6.999L91.436,6.999z"/>
		</g>
		<g>
			<path d="M91.215,7.059c7.945-0.347,15.665,1.503,23.363,3.246c7.935,1.795,16.241,3.631,22.129,9.635
				c6.611,6.747,11.305,13.301,21.149,15.134c0.549,0.103,0.783-0.737,0.231-0.841c-12.577-2.342-16.235-13.346-26.347-19.291
				c-5.624-3.31-12.561-4.486-18.834-5.907c-7.154-1.619-14.317-3.168-21.692-2.846C90.655,6.213,90.652,7.083,91.215,7.059
				L91.215,7.059z"/>
		</g>
		<g>
			<path d="M87.785,10.892c-6.154,32.746,39.968,37.39,62.61,35.671c0.557-0.04,0.56-0.912,0-0.87
				c-21.96,1.666-67.786-2.57-61.771-34.569C88.727,10.575,87.888,10.342,87.785,10.892L87.785,10.892z"/>
		</g>
		<g>
			<path d="M88.191,9.911c0.952,7.474,1.737,13.577,6.484,19.744c7.053,9.166,18.13,10.924,28.082,15.554
				c0.503,0.235,0.946-0.515,0.438-0.753c-8.562-3.982-18.317-5.715-25.352-12.409c-6.595-6.279-7.706-13.693-8.785-22.136
				C88.99,9.363,88.118,9.355,88.191,9.911L88.191,9.911z"/>
		</g>
		<g>
			<path d="M100.817,7.763c9.019,1.271,19.283,5.303,26.661,10.823c9.11,6.82,18.048,13.262,29.122,16.487
				c0.541,0.157,0.77-0.684,0.231-0.841c-11.803-3.437-20.897-10.56-30.632-17.666c-2.8-2.045-5.966-2.974-9.064-4.478
				c-5.181-2.513-10.355-4.357-16.087-5.167C100.5,6.845,100.263,7.685,100.817,7.763L100.817,7.763z"/>
		</g>
		<g>
			<path d="M89.041,9.618c5.52,2.624,11.448,4.048,16.859,7.021c4.557,2.5,7.812,6.651,11.588,10.123
				c2.889,2.656,6.028,5.046,9.28,7.24c11.119,7.502,29.022,9.387,41.097,3.369c0.503-0.25,0.063-1.001-0.441-0.752
				c-14.446,7.199-32.92,2.514-45.097-6.908c-6.052-4.682-10.568-10.85-17.33-14.563c-4.938-2.71-10.472-3.883-15.518-6.281
				C88.977,8.626,88.533,9.376,89.041,9.618L89.041,9.618z"/>
		</g>
		<g>
			<path d="M103.706,8.597c5.27,1.869,9.981,5.429,14.598,8.498c6.06,4.029,12.134,8.021,18.56,11.446
				c10.567,5.63,23.807,10.033,34.563,2.543c0.457-0.32,0.021-1.074-0.441-0.752c-12.233,8.521-27.207,1.315-38.561-5.257
				c-9.393-5.438-18.181-13.663-28.487-17.318C103.407,7.571,103.182,8.41,103.706,8.597L103.706,8.597z"/>
		</g>
		<g>
			<path d="M88.885,9.462c3.618,6.161,9.891,10.058,15.844,13.699c6.977,4.273,13.637,9.367,20.869,13.153
				c6.703,3.509,14.216,5.791,21.726,6.646c3.632,0.413,7.185-0.137,10.725-0.931c2.907-0.653,5.772-2.646,8.653-3.078
				c0.554-0.085,0.317-0.923-0.231-0.841c-1.404,0.213-2.816,1.162-4.129,1.673c-3.949,1.537-8.239,2.418-12.473,2.453
				c-8.126,0.067-16.661-3.171-23.832-6.676c-6.401-3.13-12.004-7.859-18.132-11.51c-6.705-3.996-14.202-8.101-18.269-15.029
				C89.354,8.541,88.6,8.977,88.885,9.462L88.885,9.462z"/>
		</g>
		<g>
			<path d="M89.262,8.994c8.842,0.264,15.929,2.868,22.836,8.319c6.482,5.114,12.072,11.279,18.783,16.096
				c10.694,7.674,25.217,6.034,37.366,3.441c0.549-0.117,0.317-0.955-0.231-0.839c-6.38,1.36-12.438,2.023-18.986,1.854
				c-10.585-0.274-17.641-4.5-25.279-11.477c-5.74-5.242-11.604-11.372-18.589-14.968c-4.6-2.367-10.77-3.146-15.899-3.298
				C88.699,8.106,88.702,8.976,89.262,8.994L89.262,8.994z"/>
		</g>
		<g>
			<path d="M90.09,7.647c5.716-0.511,11.453-0.696,16.486,2.483c1.977,1.25,3.389,3.253,5.137,4.798
				c4.638,4.098,9.713,7.728,14.939,11.027c12.68,8.011,30.653,15.783,44.497,6.124c0.457-0.317,0.021-1.071-0.44-0.75
				c-15.318,10.688-35.207-0.191-48.479-9.331c-3.936-2.711-7.962-5.631-11.356-9.021c-6.146-6.143-12.201-6.967-20.784-6.2
				C89.536,6.827,89.53,7.697,90.09,7.647L90.09,7.647z"/>
		</g>
		<g>
			<path d="M88.799,8.874c4.564,16.69,16.433,28.361,32.915,33.229c8.339,2.463,17.438,3.303,26.089,2.855
				c5.264-0.271,14.546-1.447,18.312-5.72c0.371-0.42-0.242-1.037-0.616-0.616c-3.983,4.521-14.261,5.288-19.608,5.563
				c-8.007,0.414-16.228-0.879-23.944-2.922c-16.189-4.285-27.92-16.583-32.307-32.621C89.49,8.102,88.651,8.332,88.799,8.874
				L88.799,8.874z"/>
		</g>
		<g>
			<path d="M89.878,10.808c5.379,6.711,10.401,13.655,16.985,19.267c5.999,5.11,13.401,8.731,20.781,11.34
				c11.384,4.024,25.174,3.591,36.472-0.714c0.516-0.196,0.293-1.04-0.231-0.839c-11.399,4.342-24.491,4.358-36.009,0.714
				c-16.677-5.279-26.87-17.27-37.382-30.384C90.144,9.754,89.53,10.374,89.878,10.808L89.878,10.808z"/>
		</g>
		<g>
			<path d="M89.579,10.102c7.33,4.843,15.337,8.558,22.465,13.711c6.811,4.922,12.677,10.916,19.892,15.298
				c0.481,0.293,0.917-0.46,0.44-0.75c-7.187-4.367-13.228-10.226-19.891-15.3c-6.985-5.317-15.157-8.88-22.465-13.713
				C89.55,9.038,89.113,9.792,89.579,10.102L89.579,10.102z"/>
		</g>
		<g>
			<path d="M81.281,7.23c5.213,7.896,4.917,20.626-1.178,27.943c-7.026,8.435-20.193,11.305-30.535,12.188
				c-9.363,0.801-19.17-0.128-28.403-1.736c-4.181-0.727-8.21-2.079-11.899-4.184c-2.335-1.334-4.189-3.232-5.759-5.384
				c-1.001-1.37-1.31-4.713-2.47-5.602c4.132,3.166,11.404,2.286,16.094,1.349c7.135-1.427,12.041-7.631,16.565-12.802
				C43.901,7.337,68.061-8.667,81.349,7.318c0.36,0.432,0.974-0.188,0.616-0.616c-9.901-11.91-26.357-5.673-37.329,1.282
				c-6.972,4.42-11.679,10.987-17.394,16.793C21.059,31.063,8.434,35.038,0.648,29.07c-0.329-0.253-0.713,0.161-0.64,0.491
				C2.082,38.899,9.279,43.543,18.1,45.857c11.035,2.893,24.137,3.563,35.383,1.985c10.479-1.471,22.502-5.228,28.939-14.26
				c5.083-7.138,4.263-19.745-0.388-26.792C81.725,6.324,80.972,6.759,81.281,7.23z"/>
		</g>
		<g>
			<path d="M83.279,11.124c6.015,31.998-39.811,36.235-61.77,34.569c-0.561-0.042-0.556,0.83,0,0.87
				c22.645,1.719,68.764-2.927,62.609-35.671C84.017,10.342,83.178,10.575,83.279,11.124L83.279,11.124z"/>
		</g>
		<g>
			<path d="M82.844,9.911c-1.027,8.07-2.098,14.169-7.534,20.702c-6.646,7.99-17.599,9.655-26.602,13.843
				c-0.506,0.238-0.065,0.988,0.44,0.753c10.136-4.716,20.559-6.508,28.012-15.466c4.949-5.947,5.616-12.472,6.556-19.832
				C83.785,9.355,82.914,9.363,82.844,9.911L82.844,9.911z"/>
		</g>
		<g>
			<path d="M82.338,8.936c-5.906,6.533-14.1,10.63-21.545,15.146c-6.528,3.961-13.107,7.936-19.91,11.414
				c-12.557,6.42-30.42,7.02-39.169-5.585c-0.317-0.457-1.071-0.022-0.752,0.441c8.519,12.271,23.751,11.999,36.603,7.45
				c7.122-2.519,13.674-7.017,20.127-10.845c8.621-5.116,18.455-9.879,25.26-17.408C83.328,9.134,82.715,8.519,82.338,8.936
				L82.338,8.936z"/>
		</g>
		<g>
			<path d="M82.269,9.023c-4.575,7.794-13.436,12.133-20.938,16.624c-8.376,5.016-15.487,10.621-24.884,13.873
				c-8.907,3.084-18.22,3.983-26.869-0.38c-2.709-1.366-5.016-3.507-6.73-5.989c-0.387-0.56-0.698-1.665-1.29-2.043
				c-0.475-0.305-0.91,0.45-0.439,0.75c0.535,0.345,1.315,2.278,1.831,2.908c2.042,2.49,4.483,4.266,7.351,5.713
				c7.896,3.979,16.661,2.758,24.787,0.389c10.116-2.951,17.849-9.112,26.683-14.47c7.609-4.616,16.582-8.982,21.252-16.936
				C83.307,8.977,82.554,8.541,82.269,9.023L82.269,9.023z"/>
		</g>
		<g>
			<path d="M82.645,8.124C77.08,8.289,70.863,9.3,65.885,11.865c-8.551,4.4-14.888,12.648-22.984,17.813
				c-7.352,4.689-16.871,6.925-25.515,7.183c-5.791,0.174-11.093-4.204-15.828-7.104c-0.479-0.295-0.915,0.458-0.439,0.751
				c3.897,2.388,7.927,5.437,12.302,6.842c6.375,2.046,15.501-0.935,21.527-2.975c7.816-2.647,13.986-7.816,20.135-13.132
				c8.486-7.338,16.182-11.91,27.563-12.249C83.204,8.976,83.207,8.106,82.645,8.124L82.645,8.124z"/>
		</g>
		<g>
			<path d="M82.266,8.642c-4.879,17.839-18.089,29.31-35.814,33.499c-13.043,3.084-34.066,5.146-43.114-7.637
				c-0.319-0.454-1.075-0.02-0.75,0.44c8.78,12.405,27.567,10.902,40.47,8.756C62.601,40.449,77.798,28.27,83.104,8.874
				C83.253,8.332,82.413,8.102,82.266,8.642L82.266,8.642z"/>
		</g>
		<g>
			<path d="M81.174,10.789c-7.066,16.124-23.732,25.816-40.253,29.904c-8.603,2.129-18.098,3.57-26.872,1.738
				c-2.838-0.592-6.797-2.001-8.391-4.688c-0.285-0.481-1.038-0.045-0.75,0.439c5.367,9.058,22.804,5.815,30.722,4.485
				c18.667-3.14,38.392-13.404,46.297-31.441C82.15,10.719,81.399,10.275,81.174,10.789L81.174,10.789z"/>
		</g>
		<g>
			<path d="M82.645,8.808C69.217,10.179,60.172,20.25,49.838,27.832C35.604,38.273,17.469,43.814,2.4,31.853
				c-0.436-0.346-1.057,0.268-0.617,0.615c11.547,9.163,24.43,8.706,37.457,2.787c15.318-6.957,25.921-23.791,43.404-25.577
				C83.196,9.622,83.201,8.75,82.645,8.808L82.645,8.808z"/>
		</g>
		<g>
			<path d="M82.79,8.855c-0.917-7.548-17.473-6.032-22.005-4.972C46.273,7.273,37.039,21.088,24.21,27.608
				c-0.501,0.254-0.06,1.006,0.439,0.752c9.159-4.654,16.274-12.391,24.706-18.136c5.641-3.843,11.98-6.232,18.824-6.425
				c3.061-0.086,13.215,0.741,13.739,5.056C81.986,9.405,82.857,9.412,82.79,8.855L82.79,8.855z"/>
		</g>
		<g>
			<path d="M82.825,8.249c-1.611-2.959-6.313-2.717-9.178-2.712c-6.708,0.013-13.175,2.567-19.194,5.289
				c-7.606,3.439-14.141,9.058-20.964,13.766c-7.824,5.397-19.519,12.454-28.856,6.614c-0.479-0.3-0.914,0.453-0.44,0.751
				c10.822,6.769,24.245-2.701,32.909-8.831c6.337-4.485,12.443-9.131,19.557-12.348c4.866-2.2,9.937-3.723,15.252-4.291
				c2.76-0.295,8.631-0.612,10.164,2.201C82.344,9.182,83.094,8.742,82.825,8.249L82.825,8.249z"/>
		</g>
		<g>
			<path d="M78.486,8.517c-12.168-0.929-23.751,6.05-32.966,13.11c-5.452,4.179-11.112,8.006-17.478,10.654
				c-8.086,3.362-14.9,1.972-23.031,0.136c-0.547-0.124-0.779,0.716-0.231,0.839c5.854,1.322,10.325,2.68,16.46,1.838
				c6.123-0.841,11.84-3.961,16.985-7.202C50.741,20.001,62.28,8.15,78.486,9.387C79.046,9.43,79.041,8.559,78.486,8.517
				L78.486,8.517z"/>
		</g>
		<g>
			<path d="M81.994,7.803c-3.44-2.111-7.959-1.12-11.732-0.657c-6.586,0.807-11.997,3.159-17.691,6.508
				C40.402,20.81,31.262,33.66,16.017,33.755c-0.561,0.004-0.561,0.874,0,0.87c10.257-0.064,17.997-5.635,25.655-11.935
				c6.205-5.104,12.625-9.636,20.068-12.755c4.537-1.901,15.184-4.226,19.813-1.383C82.034,8.848,82.47,8.096,81.994,7.803
				L81.994,7.803z"/>
		</g>
		<g>
			<path d="M82.306,9.048c-4.352,0.186-9.147,4.901-12.62,7.17c-6.412,4.187-12.626,8.66-19.108,12.744
				c-10.286,6.481-28.185,16.733-39.329,6.613c-0.414-0.376-1.031,0.237-0.616,0.615c7.859,7.137,19.653,3.969,28.385,0.267
				c7.289-3.093,14.019-7.926,20.561-12.327c3.526-2.372,7.007-4.811,10.547-7.162c2.996-1.987,8.433-6.888,12.182-7.05
				C82.862,9.894,82.865,9.024,82.306,9.048L82.306,9.048z"/>
		</g>
		<g>
			<path d="M80.256,11.352c-3.036,3.254-5.473,6.955-8.289,10.394c-3.23,3.944-7.733,6.738-12.066,9.31
				c-9.662,5.73-20.879,9.316-31.989,10.775c-0.549,0.072-0.556,0.942,0,0.87c10.777-1.416,21.165-4.852,30.751-9.952
				c4.162-2.215,8.097-4.877,11.631-7.997c4.141-3.654,6.832-8.769,10.579-12.783C81.254,11.558,80.641,10.941,80.256,11.352
				L80.256,11.352z"/>
		</g>
	</g>
</g>
</svg>
