<?xml version="1.0" encoding="iso-8859-1"?>
<!-- Generator: Adobe Illustrator 15.1.0, SVG Export Plug-In . SVG Version: 6.00 Build 0)  -->
<!DOCTYPE svg PUBLIC "-//W3C//DTD SVG 1.1//EN" "http://www.w3.org/Graphics/SVG/1.1/DTD/svg11.dtd">
<svg version="1.1" id="Tete" xmlns="http://www.w3.org/2000/svg" xmlns:xlink="http://www.w3.org/1999/xlink" x="0px" y="0px"
	 width="379.102px" height="324.203px" viewBox="0 0 379.102 324.203" style="enable-background:new 0 0 379.102 324.203;"
	 xml:space="preserve">
<radialGradient id="SVGID_1_" cx="185.2471" cy="272.7988" r="280.3703" gradientUnits="userSpaceOnUse">
	<stop  offset="0.2147" style="stop-color:#7D4E24"/>
	<stop  offset="0.8011" style="stop-color:#B58652"/>
	<stop  offset="1" style="stop-color:#CA9E67"/>
</radialGradient>
<path style="fill:url(#SVGID_1_);" d="M31.086,136.244c-9.018,20.924-14.016,43.992-14.016,68.227
	c0,95.262,77.215,119.732,172.48,119.732c95.25,0,172.467-24.471,172.467-119.732c0-24.234-5.002-47.303-14.016-68.215
	c18.844-13.686,31.1-35.893,31.1-60.961C379.102,33.717,345.391,0,303.812,0c-28.373,0-53.076,15.695-65.91,38.875
	C222.559,34.402,206.334,32,189.551,32c-16.789,0-33.023,2.402-48.367,6.875C128.359,15.695,103.645,0,75.283,0
	C33.705,0,0,33.717,0,75.295C0,100.363,12.238,122.559,31.086,136.244z M130.373,42.412c-38.545,14.086-70.662,41.52-90.74,76.713
	c-3.549-7.777-5.518-16.418-5.518-25.525c0-34.092,27.643-61.736,61.74-61.736C108.646,31.863,120.523,35.754,130.373,42.412z
	 M344.969,93.6c0,9.107-1.969,17.748-5.512,25.525c-20.082-35.193-52.199-62.627-90.746-76.701
	c9.863-6.67,21.738-10.561,34.531-10.561C317.328,31.863,344.969,59.508,344.969,93.6z M222.352,168.201
	c1.109-14.086,5.066-27.082,11.133-38.057c2.438-4.414,5.205-8.502,8.285-12.184c11.223-13.512,26.348-21.795,42.996-21.795
	c20.355,0,38.453,12.377,49.906,31.576c2.426,4.049,4.555,8.41,6.336,13.02c4.168,10.711,6.502,22.781,6.502,35.549
	c0,44.268-28.088,80.146-62.744,80.146c-10.332,0-20.082-3.189-28.674-8.84c0.984-4.943,1.498-10.07,1.498-15.324
	c0-13.773-3.547-26.668-9.713-37.676c4.268,2.746,9.541,4.359,15.24,4.359c14.279,0,25.857-10.148,25.857-22.666
	c0-12.516-11.578-22.652-25.857-22.652s-25.857,10.137-25.857,22.652c0,1.488,0.162,2.941,0.48,4.348
	C233.207,175.762,228.025,171.553,222.352,168.201z M163.691,283.52c0-5.777,11.578-10.459,25.859-10.459
	c14.275,0,25.855,4.682,25.855,10.459s-11.58,10.469-25.855,10.469C175.27,293.988,163.691,289.297,163.691,283.52z
	 M163.691,181.816c0-12.52,11.578-22.668,25.859-22.668c14.275,0,25.855,10.148,25.855,22.668c0,12.516-11.58,22.654-25.855,22.654
	C175.27,204.471,163.691,194.332,163.691,181.816z M31.586,176.311c0-12.768,2.336-24.838,6.5-35.549
	c1.785-4.609,3.902-8.959,6.328-13.008c11.453-19.199,29.555-31.588,49.91-31.588c16.633,0,31.77,8.271,42.996,21.783
	c3.074,3.684,5.855,7.77,8.281,12.184c6.076,10.975,10.035,23.982,11.145,38.068c-5.676,3.352-10.857,7.561-15.391,12.457
	c0.324-1.406,0.48-2.859,0.48-4.348c0-12.516-11.578-22.652-25.855-22.652c-14.281,0-25.859,10.137-25.859,22.652
	c0,12.518,11.578,22.666,25.859,22.666c5.697,0,10.971-1.613,15.238-4.359c-6.166,11.008-9.715,23.902-9.715,37.676
	c0,5.254,0.516,10.381,1.5,15.324c-8.604,5.65-18.352,8.84-28.68,8.84C59.676,256.457,31.586,220.578,31.586,176.311z"/>
</svg>
