<?xml version="1.0" encoding="utf-8"?>
<!-- Generator: Adobe Illustrator 16.0.0, SVG Export Plug-In . SVG Version: 6.00 Build 0)  -->
<!DOCTYPE svg PUBLIC "-//W3C//DTD SVG 1.1//EN" "http://www.w3.org/Graphics/SVG/1.1/DTD/svg11.dtd">
<svg version="1.1" id="Layer_1" xmlns="http://www.w3.org/2000/svg" xmlns:xlink="http://www.w3.org/1999/xlink" x="0px" y="0px"
	 width="48px" height="48px" viewBox="-571.5 444.5 48 48" enable-background="new -571.5 444.5 48 48" xml:space="preserve">
<path fill="#FFFFFF" d="M-532.357,491.438c1.551,0,2.801-1.275,2.801-2.826v-23.12h-13.566v25.946"/>
<path fill="#FFFFFF" d="M-552.093,491.438v-25.945h-13.566v23.119c0,1.551,1.251,2.826,2.802,2.826"/>
<path fill="#FFFFFF" d="M-529.395,455.483h-13.729v8.303h13.729c1.551,0,2.804-1.275,2.804-2.826v-2.636
	C-526.591,456.773-527.844,455.483-529.395,455.483z"/>
<path fill="#FFFFFF" d="M-568.625,458.324v2.636c0,1.551,1.255,2.826,2.806,2.826h13.727v-8.303h-13.727
	C-567.37,455.483-568.625,456.773-568.625,458.324z"/>
<path fill="#FFFFFF" d="M-533.189,452.36c0.521-0.637,1.076-1.715,0.755-3.327c-0.418-2.098-2.627-3.401-5.765-3.401
	c-1.285,0-2.64,0.216-4.028,0.642c-0.869,0.267-1.677,0.641-2.414,1.071c-0.496-0.361-1.063-0.63-1.676-0.783
	c-0.378-0.106-0.775-0.171-1.183-0.188c-0.42,0.018-0.827,0.086-1.214,0.198c-0.599,0.155-1.153,0.421-1.64,0.776
	c-0.739-0.431-1.548-0.805-2.419-1.073c-1.388-0.426-2.743-0.642-4.027-0.642c-3.138,0-5.346,1.303-5.765,3.401
	c-0.321,1.611,0.233,2.69,0.755,3.326c1.219,1.485,3.574,2.16,7.413,2.16h6.897h6.897
	C-536.763,454.52-534.408,453.845-533.189,452.36z M-552.352,451.11h-2.045c-3.833,0-4.668-0.752-4.797-0.908
	c-0.042-0.051-0.128-0.135-0.053-0.513c0.055-0.151,0.775-0.678,2.447-0.678c0.935,0,1.984,0.173,3.035,0.496
	c0.544,0.167,1.06,0.37,1.544,0.637C-552.296,450.455-552.34,450.778-552.352,451.11z M-542.771,450.14
	c0.481-0.265,0.995-0.473,1.536-0.64c1.052-0.322,2.101-0.489,3.035-0.489c1.671,0,2.392,0.525,2.446,0.676
	c0.076,0.378-0.012,0.464-0.053,0.515c-0.129,0.156-0.965,0.908-4.797,0.908h-2.039
	C-542.651,450.777-542.696,450.453-542.771,450.14z"/>
</svg>
