<?xml version="1.0" encoding="utf-8"?>
<!-- Generator: Adobe Illustrator 16.0.0, SVG Export Plug-In . SVG Version: 6.00 Build 0)  -->
<!DOCTYPE svg PUBLIC "-//W3C//DTD SVG 1.1//EN" "http://www.w3.org/Graphics/SVG/1.1/DTD/svg11.dtd">
<svg version="1.1" id="Calque_1" xmlns="http://www.w3.org/2000/svg" xmlns:xlink="http://www.w3.org/1999/xlink" x="0px" y="0px"
	 width="300px" height="300px" viewBox="494.026 302.531 300 300" enable-background="new 494.026 302.531 300 300"
	 xml:space="preserve">
<g opacity="0.6">
	<path fill="#3C3C3E" d="M710.757,410.194c-1.478-3.048-3.359-5.939-5.59-8.653c-5.06-15.463-19.356-26.242-36.799-26.242
		c-5.909,0-11.819,1.374-17.222,3.864c-5.551,2.559-10.567,6.294-14.496,10.938c-2.408-2.846-5.224-5.351-8.321-7.453
		c-6.875-4.667-15.136-7.349-23.397-7.349c-21.851,0-38.767,16.917-38.767,38.767c0,26.784,23.965,48.634,60.617,81.057l8.169,8.169
		l6.643,9.727l126.756,185.633l110.15-42.821L710.757,410.194z"/>
</g>
<g id="favorite">
	<path fill="#FFFFFF" d="M636.651,504.991l-9.868-9.868c-36.652-32.424-60.617-54.273-60.617-81.058
		c0-21.851,16.916-38.767,38.766-38.767c11.982,0,23.965,5.639,31.718,14.801c7.753-9.163,19.736-14.801,31.718-14.801
		c21.851,0,38.768,16.916,38.768,38.767c0,26.784-23.965,48.634-60.618,81.057L636.651,504.991z"/>
</g>
</svg>
