<?xml version="1.0" encoding="utf-8"?>
<!-- Generator: Adobe Illustrator 16.0.0, SVG Export Plug-In . SVG Version: 6.00 Build 0)  -->
<!DOCTYPE svg PUBLIC "-//W3C//DTD SVG 1.1//EN" "http://www.w3.org/Graphics/SVG/1.1/DTD/svg11.dtd">
<svg version="1.1" id="Calque_1" xmlns="http://www.w3.org/2000/svg" xmlns:xlink="http://www.w3.org/1999/xlink" x="0px" y="0px"
	 width="24.262px" height="24.016px" viewBox="0 0 24.262 24.016" enable-background="new 0 0 24.262 24.016" xml:space="preserve">
<path fill="#FFFFFF" d="M3.199,24.016c-0.734,0-1.469-0.25-2.07-0.762c-1.348-1.145-1.512-3.164-0.367-4.508l5.718-6.738
	L0.762,5.273c-1.145-1.347-0.981-3.367,0.367-4.511c1.348-1.145,3.367-0.981,4.512,0.367l7.48,8.808c1.016,1.196,1.016,2.95,0,4.141
	l-7.48,8.809C5.008,23.633,4.105,24.016,3.199,24.016L3.199,24.016z M16.02,22.887l7.48-8.809c1.016-1.191,1.016-2.949,0-4.141
	l-7.48-8.808c-1.145-1.348-3.164-1.512-4.512-0.367c-1.348,1.144-1.512,3.164-0.367,4.507l5.722,6.739l-5.722,6.734
	c-1.145,1.348-0.981,3.367,0.367,4.512c0.601,0.512,1.336,0.762,2.07,0.762C14.484,24.016,15.387,23.633,16.02,22.887L16.02,22.887z
	 M16.02,22.887"/>
</svg>
