<?xml version="1.0" encoding="utf-8"?>
<!-- Generator: Adobe Illustrator 16.0.0, SVG Export Plug-In . SVG Version: 6.00 Build 0)  -->
<!DOCTYPE svg PUBLIC "-//W3C//DTD SVG 1.1//EN" "http://www.w3.org/Graphics/SVG/1.1/DTD/svg11.dtd">
<svg version="1.1" id="Capa_1" xmlns="http://www.w3.org/2000/svg" xmlns:xlink="http://www.w3.org/1999/xlink" x="0px" y="0px"
	 width="30px" height="30px" viewBox="-7.5 -7.747 30 30" enable-background="new -7.5 -7.747 30 30" xml:space="preserve">
<path fill="#3C3C3E" d="M7.63-6.509L-7.508,4.793v17.973h30.273V4.793L7.63-6.509z M3.442,1.556
	c0.444-0.811,1.057-1.422,1.833-1.828c0.775-0.409,1.66-0.616,2.658-0.616c0.843,0,1.595,0.166,2.253,0.492
	c0.659,0.331,1.16,0.797,1.511,1.403c0.343,0.607,0.521,1.269,0.521,1.985c0,0.855-0.265,1.629-0.793,2.321
	c-0.661,0.872-1.507,1.308-2.542,1.308c-0.279,0-0.486-0.046-0.63-0.145c-0.139-0.099-0.236-0.24-0.283-0.43
	C7.58,6.432,7.12,6.625,6.603,6.625c-0.557,0-1.02-0.193-1.386-0.575C4.85,5.664,4.666,5.152,4.666,4.516
	c0-0.793,0.221-1.51,0.664-2.159c0.539-0.793,1.225-1.19,2.065-1.19c0.599,0,1.04,0.227,1.322,0.686l0.126-0.559h1.332L9.413,4.902
	c-0.047,0.23-0.07,0.375-0.07,0.442c0,0.087,0.02,0.145,0.058,0.189c0.037,0.043,0.084,0.064,0.137,0.064
	c0.164,0,0.371-0.095,0.625-0.293c0.344-0.252,0.62-0.599,0.83-1.024c0.211-0.431,0.319-0.877,0.319-1.336
	c0-0.824-0.297-1.514-0.895-2.074c-0.599-0.55-1.435-0.831-2.504-0.831c-0.91,0-1.682,0.186-2.313,0.56
	C4.968,0.965,4.491,1.489,4.168,2.163c-0.319,0.67-0.479,1.373-0.479,2.101c0,0.707,0.182,1.352,0.536,1.931
	C4.585,6.779,5.086,7.2,5.731,7.47C6.377,7.733,7.117,7.866,7.95,7.866c0.798,0,1.488-0.111,2.068-0.334
	c0.579-0.224,1.042-0.555,1.395-1.005h1.068c-0.335,0.682-0.848,1.215-1.541,1.604C10.143,8.573,9.173,8.793,8.03,8.793
	c-1.11,0-2.065-0.187-2.87-0.56C4.353,7.858,3.755,7.308,3.359,6.579c-0.391-0.73-0.583-1.526-0.583-2.385
	C2.775,3.251,2.995,2.371,3.442,1.556z M-6.44,5.15l11.168,7.489L-6.44,21.282V5.15z M-5.593,21.861L7.63,11.63L20.85,21.861H-5.593
	z M21.696,21.282L10.53,12.639L21.696,5.15V21.282z M8.176,2.379c0.177,0.202,0.266,0.492,0.266,0.872
	c0,0.339-0.065,0.707-0.195,1.096C8.118,4.74,7.964,5.042,7.786,5.245C7.665,5.388,7.535,5.493,7.408,5.56
	C7.241,5.654,7.064,5.7,6.872,5.7c-0.257,0.003-0.469-0.1-0.645-0.302C6.056,5.196,5.972,4.886,5.972,4.46
	c0-0.32,0.06-0.687,0.186-1.1c0.125-0.414,0.308-0.729,0.552-0.955c0.247-0.224,0.513-0.335,0.8-0.335
	C7.778,2.073,8.002,2.176,8.176,2.379z"/>
</svg>
