<?xml version="1.0" encoding="utf-8"?>
<!-- Generator: Adobe Illustrator 16.0.0, SVG Export Plug-In . SVG Version: 6.00 Build 0)  -->
<!DOCTYPE svg PUBLIC "-//W3C//DTD SVG 1.1//EN" "http://www.w3.org/Graphics/SVG/1.1/DTD/svg11.dtd">
<svg version="1.1" id="Layer_1" xmlns="http://www.w3.org/2000/svg" xmlns:xlink="http://www.w3.org/1999/xlink" x="0px" y="0px"
	 width="300px" height="300px" viewBox="-117.45 -118.781 300 300" enable-background="new -117.45 -118.781 300 300"
	 xml:space="preserve">
<path opacity="0.6" fill="#3C3C3E" d="M62.522-13.081c-1.16-3.162-2.692-6.128-4.563-8.859l-1.257-2.435l-0.364,0.186
	c-6.887-8.723-17.276-14.539-29-15.281H22.41c-20.97,1.33-37.687,18.86-37.687,40.289c0,3.955,0.502,7.676,1.405,11.167
	l-0.076,0.042l0.219,0.435c1.431,5.259,3.871,9.926,7.17,13.911l9.006,17.479L18.156,74.33l81.31,157.813l70.654-36.407
	L62.522-13.081z"/>
<g>
	<path fill="#FFFFFF" d="M27.339-39.702H22.41C1.44-38.378-15.277-20.843-15.277,0.582c0,14.726,6.499,26.495,17.725,33.449v11.593
		c0,3.385,1.258,4.692,3.22,6.002c0.49,0.312,0.797,0.853,0.832,1.448c0.038,0.586,0.093,1.35-0.65,1.53
		c-3.039,0-3.03,3.33-3.03,3.33c0,1.352,0,7.474,0,7.474c0,1.672,1.354,3.018,3.03,3.018h2.025c1.621,0,2.803,1.347,2.803,1.347
		s7.124,5.823,14.2,5.823c7.17,0,14.192-5.823,14.192-5.823s1.183-1.347,2.804-1.347h2.024c1.685,0,3.029-1.35,3.029-3.018
		c0,0,0-6.118,0-7.474c0,0,0.01-3.33-3.029-3.33c-0.742-0.177-0.684-0.958-0.646-1.53c0.043-0.596,0.346-1.137,0.831-1.448
		c1.959-1.31,3.217-2.608,3.217-6.002V34.031c11.225-6.95,17.728-18.723,17.728-33.449C65.028-20.843,48.316-38.382,27.339-39.702z
		 M38.876,25.266l-2.258,1.17v10.752c0,1.845-1.274,3.41-3.063,3.803l-4.765,1c-0.802,0.178-4.638,0.811-7.828,0l-4.765-1
		c-1.788-0.393-3.063-1.958-3.063-3.803V26.431l-2.258-1.169C-0.472,19.422-2.852,9.002-2.852,1.312
		c0-15.432,12.424-27.988,27.73-28.038C40.18-26.676,52.604-14.12,52.604,1.312C52.604,9.01,50.22,19.43,38.876,25.266z"/>
	<path fill="#FFFFFF" d="M75.744-35.115c0.151-0.988-0.126-1.996-0.76-2.786c-0.371-0.468-0.751-0.924-1.131-1.389
		c-0.651-0.763-1.579-1.232-2.597-1.288c-0.986-0.054-1.979,0.309-2.704,0.997l-6.498,6.182c-1.368,1.317-1.491,3.474-0.293,4.938
		c0.084,0.089,0.144,0.173,0.228,0.266c1.19,1.477,3.33,1.781,4.896,0.685l7.345-5.154C75.044-33.237,75.592-34.124,75.744-35.115z"
		/>
	<path fill="#FFFFFF" d="M24.499-45.683c0.11-0.003,0.224-0.003,0.329-0.003c1.904-0.013,3.477-1.499,3.595-3.397l0.574-8.955
		c0.068-0.997-0.278-1.979-0.974-2.709c-0.676-0.734-1.639-1.148-2.634-1.152c-0.604,0-1.199,0.004-1.803,0.017
		c-0.995,0.025-1.945,0.46-2.612,1.207c-0.667,0.752-1,1.744-0.911,2.74L20.835-49C21-47.105,22.599-45.657,24.499-45.683z"/>
	<path fill="#FFFFFF" d="M-20.817,12.509c-0.44-1.857-2.232-3.039-4.111-2.744l-8.862,1.457c-0.992,0.16-1.869,0.716-2.431,1.544
		c-0.556,0.823-0.755,1.857-0.54,2.823c0.131,0.588,0.274,1.174,0.426,1.748c0.245,0.974,0.878,1.797,1.755,2.262
		c0.878,0.476,1.917,0.607,2.871,0.269l8.55-2.743c1.806-0.59,2.87-2.465,2.418-4.312C-20.767,12.733-20.792,12.623-20.817,12.509z"
		/>
	<path fill="#FFFFFF" d="M-12.208-27.295c0.072-0.093,0.135-0.182,0.211-0.27c1.173-1.503,0.987-3.65-0.422-4.93l-6.639-6.03
		c-0.746-0.671-1.73-1.009-2.73-0.932c-0.992,0.084-1.917,0.565-2.545,1.346c-0.38,0.468-0.748,0.941-1.11,1.422
		c-0.604,0.801-0.853,1.811-0.684,2.797c0.168,0.988,0.734,1.857,1.565,2.418l7.47,4.971
		C-15.509-25.447-13.373-25.798-12.208-27.295z"/>
	<path fill="#FFFFFF" d="M86.901,11.504c-0.582-0.811-1.468-1.354-2.459-1.503l-8.875-1.256c-1.883-0.262-3.654,0.971-4.052,2.835
		c-0.052,0.089-0.071,0.229-0.093,0.338c-0.439,1.856,0.667,3.688,2.497,4.237l8.594,2.553c0.979,0.279,1.999,0.161,2.86-0.317
		c0.856-0.505,1.485-1.355,1.709-2.321c0.135-0.607,0.263-1.172,0.38-1.747C87.692,13.341,87.475,12.323,86.901,11.504z"/>
</g>
</svg>
