<?xml version="1.0" encoding="utf-8"?>
<!-- Generator: Adobe Illustrator 16.0.0, SVG Export Plug-In . SVG Version: 6.00 Build 0)  -->
<!DOCTYPE svg PUBLIC "-//W3C//DTD SVG 1.1//EN" "http://www.w3.org/Graphics/SVG/1.1/DTD/svg11.dtd">
<svg version="1.1" id="Capa_1" xmlns="http://www.w3.org/2000/svg" xmlns:xlink="http://www.w3.org/1999/xlink" x="0px" y="0px"
	 width="100px" height="100px" viewBox="-42 -42 100 100" enable-background="new -42 -42 100 100" xml:space="preserve">
<path fill="#3C3C3E" d="M7.672-41.343C-19.759-41.343-42-19.102-42,8.328C-42,35.76-19.759,58,7.672,58
	c27.431,0,49.671-22.24,49.671-49.672C57.343-19.108,35.103-41.343,7.672-41.343z M-4.746,32.389h-12.418v-43.463h12.418V32.389z
	 M-10.571-13.739c-3.216,0-5.818-2.607-5.818-5.824c0-3.216,2.608-5.823,5.818-5.823c3.217,0.006,5.825,2.616,5.825,5.823
	C-4.746-16.347-7.354-13.739-10.571-13.739z M38.716,32.389H26.298V5.515c0-3.147-0.896-5.351-4.766-5.351
	c-6.414,0-7.651,5.351-7.651,5.351v26.874H1.463v-43.463h12.417v4.153c1.776-1.357,6.208-4.147,12.417-4.147
	c4.026,0,12.418,2.411,12.418,16.962V32.389z"/>
</svg>
