<?xml version="1.0" encoding="utf-8"?>
<!-- Generator: Adobe Illustrator 17.0.0, SVG Export Plug-In . SVG Version: 6.00 Build 0)  -->
<!DOCTYPE svg PUBLIC "-//W3C//DTD SVG 1.1//EN" "http://www.w3.org/Graphics/SVG/1.1/DTD/svg11.dtd">
<svg version="1.1" id="Calque_1" xmlns="http://www.w3.org/2000/svg" xmlns:xlink="http://www.w3.org/1999/xlink" x="0px" y="0px"
	 width="400.022px" height="400.021px" viewBox="0 0 400.022 400.021" enable-background="new 0 0 400.022 400.021"
	 xml:space="preserve">
<g>
	<circle fill="#3C3C3E" cx="200.012" cy="200.011" r="200.011"/>
	<g>
		<path fill="#D9E021" d="M115.055,58.635h79.298c55.285,0,95.855,11.498,121.718,34.49c25.856,22.995,38.789,58.948,38.789,107.865
			c0,49.173-12.993,85.286-38.979,108.341c-25.987,23.061-66.497,34.587-121.527,34.587h-79.298L115.055,58.635L115.055,58.635z
			 M153.652,90.354v221.844h46.624c39.362,0,68.182-8.914,86.464-26.75c18.277-17.834,27.419-45.986,27.419-84.458
			c0-38.216-9.142-66.209-27.419-83.98c-18.282-17.77-47.102-26.655-86.464-26.655L153.652,90.354L153.652,90.354z"/>
	</g>
	<rect x="111.967" y="125.212" fill="#3C3C3E" width="44" height="157"/>
	<g>
		<path fill="#FFFFFF" d="M126.849,286.968c-20.803,0-37.693-7.354-50.669-22.065c-12.979-14.71-19.467-33.604-19.467-56.688v-8.171
			c0-23.182,6.562-42.299,19.688-57.357c13.125-15.056,29.396-22.585,48.813-22.585c19.515,0,34.597,6.268,45.246,18.798
			c10.647,12.531,15.975,29.397,15.975,50.597v13.816H74.544v4.903c0,18.33,4.629,33.533,13.893,45.619
			c9.262,12.085,22.065,18.126,38.412,18.126c9.807,0,18.82-1.606,27.045-4.83c8.22-3.217,15.056-7.551,20.504-13.001l7.579,12.186
			c-5.646,5.945-13.053,10.873-22.214,14.785C150.598,285.011,139.625,286.968,126.849,286.968z M125.214,135.257
			c-13.671,0-24.916,4.902-33.731,14.709c-8.817,9.809-13.968,22.241-15.452,37.297l0.445,0.893h92.127v-3.715
			c0-14.267-3.74-26.026-11.22-35.292C149.904,139.887,139.183,135.257,125.214,135.257z"/>
	</g>
</g>
<g>
	<circle fill="#3C3C3E" cx="199.763" cy="199.076" r="200.164"/>
	<g>
		<path fill="#D6DA2C" d="M123.795,47.5h70.43c49.102,0,85.137,10.212,108.106,30.633c22.966,20.424,34.451,52.356,34.451,95.803
			c0,43.674-11.54,75.749-34.621,96.225c-23.081,20.482-59.06,30.718-107.937,30.718h-70.43V47.5z M158.076,75.672v197.035h41.41
			c34.961,0,60.558-7.917,76.796-23.758c16.233-15.84,24.353-40.844,24.353-75.013c0-33.943-8.12-58.806-24.353-74.589
			c-16.238-15.783-41.835-23.675-76.796-23.675H158.076z"/>
	</g>
	<rect x="121.511" y="110.51" fill="#3C3C3E" width="38" height="132"/>
	<circle fill="none" cx="202.133" cy="204.831" r="180.147"/>
	<text transform="matrix(0.7852 0.6192 -0.6192 0.7852 81.5086 339.1384)"><tspan x="0" y="0" fill="#FFFFFF" font-family="'HelveticaNeue-Light'" font-size="33.1584">C</tspan><tspan x="31.206" y="-0.637" fill="#FFFFFF" font-family="'HelveticaNeue-Light'" font-size="33.1584" rotate="-10.1">O</tspan><tspan x="63.26" y="-6.982" fill="#FFFFFF" font-family="'HelveticaNeue-Light'" font-size="33.1584" rotate="-21.026">M</tspan><tspan x="96.409" y="-20.612" fill="#FFFFFF" font-family="'HelveticaNeue-Light'" font-size="33.1584" rotate="-32.461">M</tspan><tspan x="125.886" y="-40.482" fill="#FFFFFF" font-family="'HelveticaNeue-Light'" font-size="33.1584" rotate="-42.848">U</tspan><tspan x="147.82" y="-61.696" fill="#FFFFFF" font-family="'HelveticaNeue-Light'" font-size="33.1584" rotate="-52.666">N</tspan><tspan x="165.521" y="-86.468" fill="#FFFFFF" font-family="'HelveticaNeue-Light'" font-size="33.1584" rotate="-59.867">I</tspan><tspan x="172.844" y="-98.98" fill="#FFFFFF" font-family="'HelveticaNeue-Light'" font-size="33.1584" rotate="-67.043">C</tspan><tspan x="184.267" y="-127.847" fill="#FFFFFF" font-family="'HelveticaNeue-Light'" font-size="33.1584" rotate="-76.508">A</tspan><tspan x="190.25" y="-155.586" fill="#FFFFFF" font-family="'HelveticaNeue-Light'" font-size="33.1584" rotate="-85.09">T</tspan><tspan x="191.741" y="-180.858" fill="#FFFFFF" font-family="'HelveticaNeue-Light'" font-size="33.1584" rotate="-91.35">I</tspan><tspan x="191.49" y="-195.414" fill="none" font-family="'HelveticaNeue-Light'" font-size="33.1584" rotate="-98.695">O</tspan><tspan x="185.839" y="-227.379" fill="#FFFFFF" font-family="'HelveticaNeue-Light'" font-size="33.1584" rotate="-108.866">N</tspan></text>
	<g>
		<path fill="none" d="M140.846,115.017c-27.066,0-49.596,21.07-54.515,48.952h109.031
			C190.442,136.088,167.911,115.017,140.846,115.017z"/>
		<g>
			<path fill="#FFFFFF" d="M208.867,178.505c0.051-1.178,0.079-2.363,0.079-3.555c0-2.476-0.117-4.923-0.334-7.337v-3.644h-0.413
				c-4.881-35.861-33.289-63.381-67.613-63.381c-37.754,0-68.361,33.293-68.361,74.362s30.606,74.362,68.361,74.362
				c27.496,0,51.199-17.659,62.051-43.119l-12.983-3.395c-9.179,19.594-27.894,33.016-49.497,33.016
				c-29.738,0-54.014-25.432-55.454-57.393h110.906c-0.001,0.028-0.005,0.055-0.007,0.083H208.867z M85.642,163.969
				c4.919-27.881,27.45-48.952,54.515-48.952s49.596,21.07,54.515,48.952H85.642z"/>
		</g>
	</g>
	<circle fill="#D6DA2C" cx="348.002" cy="289.247" r="12.833"/>
</g>
</svg>
