<?xml version="1.0" encoding="utf-8"?>
<!-- Generator: Adobe Illustrator 17.0.0, SVG Export Plug-In . SVG Version: 6.00 Build 0)  -->
<!DOCTYPE svg PUBLIC "-//W3C//DTD SVG 1.1//EN" "http://www.w3.org/Graphics/SVG/1.1/DTD/svg11.dtd">
<svg version="1.1" xmlns="http://www.w3.org/2000/svg" xmlns:xlink="http://www.w3.org/1999/xlink" x="0px" y="0px"
	 width="400.022px" height="400.021px" viewBox="0 0 400.022 400.021" enable-background="new 0 0 400.022 400.021"
	 xml:space="preserve">
<g id="Calque_1" display="none">
	<g display="inline">
		<circle fill="#3C3C3E" cx="200.011" cy="202.729" r="200.011"/>
		<g>
			<path fill="#D9E021" d="M115.054,61.353h79.298c55.285,0,95.855,11.498,121.718,34.49
				c25.856,22.995,38.789,58.948,38.789,107.865c0,49.173-12.993,85.286-38.979,108.341
				c-25.987,23.061-66.497,34.587-121.527,34.587h-79.298L115.054,61.353L115.054,61.353z M153.652,93.072v221.844h46.624
				c39.362,0,68.182-8.914,86.464-26.75c18.277-17.834,27.419-45.986,27.419-84.458c0-38.217-9.142-66.209-27.419-83.98
				c-18.282-17.77-47.102-26.655-86.464-26.655L153.652,93.072L153.652,93.072z"/>
		</g>
		<rect x="111.967" y="127.93" fill="#3C3C3E" width="44" height="157"/>
		<g>
			<path fill="#FFFFFF" d="M126.848,289.686c-20.803,0-37.693-7.354-50.669-22.065c-12.979-14.71-19.467-33.604-19.467-56.688
				v-8.171c0-23.182,6.562-42.299,19.688-57.357c13.125-15.056,29.396-22.585,48.813-22.585c19.515,0,34.597,6.268,45.246,18.797
				c10.647,12.532,15.975,29.398,15.975,50.598v13.816H74.544v4.903c0,18.33,4.629,33.533,13.893,45.619
				c9.262,12.085,22.065,18.126,38.412,18.126c9.807,0,18.82-1.606,27.045-4.83c8.22-3.217,15.056-7.551,20.504-13.001l7.579,12.186
				c-5.646,5.945-13.053,10.873-22.214,14.785C150.597,287.729,139.625,289.686,126.848,289.686z M125.214,137.975
				c-13.671,0-24.916,4.902-33.731,14.709c-8.817,9.809-13.968,22.241-15.452,37.297l0.445,0.893h92.127v-3.715
				c0-14.267-3.74-26.026-11.22-35.293C149.904,142.605,139.182,137.975,125.214,137.975z"/>
		</g>
	</g>
</g>
<g id="Calque_2">
	<g>
		<circle fill="#3C3C3E" cx="199.421" cy="199.156" r="199.243"/>
		<g>
			<path fill="#D6DA2C" d="M123.803,48.277h70.106c48.876,0,84.746,10.165,107.609,30.492c22.861,20.33,34.293,52.115,34.293,95.362
				c0,43.473-11.487,75.401-34.462,95.782c-22.975,20.388-58.788,30.577-107.44,30.577h-70.106V48.277z M157.926,76.319v196.129
				h41.219c34.8,0,60.279-7.881,76.443-23.649c16.158-15.767,24.241-40.656,24.241-74.668c0-33.787-8.083-58.535-24.241-74.246
				c-16.163-15.711-41.643-23.566-76.443-23.566H157.926z"/>
		</g>
		<rect x="120.511" y="110.51" fill="#3C3C3E" width="41" height="132"/>
		<circle fill="none" cx="201.781" cy="204.884" r="179.319"/>
		<text transform="matrix(0.7852 0.6192 -0.6192 0.7852 81.7107 338.575)"><tspan x="0" y="0" fill="#FFFFFF" font-family="'HelveticaNeue-Light'" font-size="33.0059">C</tspan><tspan x="31.079" y="-0.637" fill="#FFFFFF" font-family="'HelveticaNeue-Light'" font-size="33.0059" rotate="-10.105">O</tspan><tspan x="62.985" y="-6.955" fill="#FFFFFF" font-family="'HelveticaNeue-Light'" font-size="33.0059" rotate="-21.031">M</tspan><tspan x="95.998" y="-20.534" fill="#FFFFFF" font-family="'HelveticaNeue-Light'" font-size="33.0059" rotate="-32.471">M</tspan><tspan x="125.334" y="-40.317" fill="#FFFFFF" font-family="'HelveticaNeue-Light'" font-size="33.0059" rotate="-42.859">U</tspan><tspan x="147.185" y="-61.464" fill="#FFFFFF" font-family="'HelveticaNeue-Light'" font-size="33.0059" rotate="-52.687">N</tspan><tspan x="164.796" y="-86.128" fill="#FFFFFF" font-family="'HelveticaNeue-Light'" font-size="33.0059" rotate="-59.889">I</tspan><tspan x="172.096" y="-98.615" fill="#FFFFFF" font-family="'HelveticaNeue-Light'" font-size="33.0059" rotate="-67.075">C</tspan><tspan x="183.449" y="-127.355" fill="#FFFFFF" font-family="'HelveticaNeue-Light'" font-size="33.0059" rotate="-76.538">A</tspan><tspan x="189.393" y="-154.986" fill="#FFFFFF" font-family="'HelveticaNeue-Light'" font-size="33.0059" rotate="-85.127">T</tspan><tspan x="190.859" y="-180.126" fill="#FFFFFF" font-family="'HelveticaNeue-Light'" font-size="33.0059" rotate="-91.381">I</tspan><tspan x="190.6" y="-194.633" fill="none" font-family="'HelveticaNeue-Light'" font-size="33.0059" rotate="-98.732">O</tspan><tspan x="184.951" y="-226.465" fill="#FFFFFF" font-family="'HelveticaNeue-Light'" font-size="33.0059" rotate="-108.91">N</tspan></text>
		<g>
			<path fill="none" d="M140.775,115.483c-26.941,0-49.368,20.973-54.265,48.726H195.04
				C190.143,136.457,167.716,115.483,140.775,115.483z"/>
			<g>
				<path fill="#FFFFFF" d="M208.483,178.678c0.051-1.173,0.079-2.352,0.079-3.539c0-2.465-0.116-4.9-0.333-7.303v-3.627h-0.411
					c-4.858-35.696-33.136-63.089-67.302-63.089c-37.581,0-68.046,33.14-68.046,74.02s30.465,74.02,68.046,74.02
					c27.369,0,50.964-17.578,61.766-42.92l-12.924-3.379c-9.137,19.503-27.766,32.865-49.269,32.865
					c-29.602,0-53.766-25.315-55.199-57.129h110.395c-0.001,0.028-0.005,0.055-0.007,0.083H208.483z M85.825,164.209
					c4.897-27.753,27.323-48.726,54.265-48.726s49.368,20.973,54.265,48.726H85.825z"/>
			</g>
		</g>
		<circle fill="#D6DA2C" cx="346.979" cy="288.911" r="12.774"/>
	</g>
</g>
</svg>
