<?xml version="1.0" encoding="utf-8"?>
<!-- Generator: Adobe Illustrator 17.0.0, SVG Export Plug-In . SVG Version: 6.00 Build 0)  -->
<!DOCTYPE svg PUBLIC "-//W3C//DTD SVG 1.1//EN" "http://www.w3.org/Graphics/SVG/1.1/DTD/svg11.dtd">
<svg version="1.1" id="Calque_1" xmlns="http://www.w3.org/2000/svg" xmlns:xlink="http://www.w3.org/1999/xlink" x="0px" y="0px"
	 width="272.074px" height="272.074px" viewBox="74.022 24.639 272.074 272.074"
	 enable-background="new 74.022 24.639 272.074 272.074" xml:space="preserve">
<g>
	<circle fill="#3C3C3E" cx="209.909" cy="160.329" r="135.777"/>
	<g>
		<path fill="#D6DA2C" d="M158.377,57.51h47.775c33.308,0,57.751,6.927,73.332,20.779c15.579,13.854,23.369,35.515,23.369,64.986
			c0,29.626-7.828,51.383-23.485,65.273c-15.657,13.894-40.062,20.837-73.217,20.837h-47.775V57.51z M181.631,76.62v133.655h28.09
			c23.715,0,41.078-5.371,52.093-16.116c11.011-10.745,16.519-27.706,16.519-50.884c0-23.025-5.508-39.89-16.519-50.596
			c-11.015-10.706-28.378-16.059-52.093-16.059H181.631z"/>
	</g>
	<rect x="157.537" y="100.536" fill="#3C3C3E" width="26" height="90"/>
	<circle fill="none" cx="211.517" cy="164.233" r="122.2"/>
	<text transform="matrix(0.7851 0.6194 -0.6194 0.7851 129.6771 255.3226)"><tspan x="0" y="0" fill="#FFFFFF" font-family="'HelveticaNeue-Light'" font-size="22.4924">C</tspan><tspan x="21.179" y="-0.433" fill="#FFFFFF" font-family="'HelveticaNeue-Light'" font-size="22.4924" rotate="-10.104">O</tspan><tspan x="42.901" y="-4.743" fill="#FFFFFF" font-family="'HelveticaNeue-Light'" font-size="22.4924" rotate="-20.959">M</tspan><tspan x="65.124" y="-13.847" fill="#FFFFFF" font-family="'HelveticaNeue-Light'" font-size="22.4924" rotate="-32.256">M</tspan><tspan x="84.938" y="-27.091" fill="#FFFFFF" font-family="'HelveticaNeue-Light'" font-size="22.4924" rotate="-42.575">U</tspan><tspan x="99.896" y="-41.421" fill="#FFFFFF" font-family="'HelveticaNeue-Light'" font-size="22.4924" rotate="-52.396">N</tspan><tspan x="111.987" y="-58.176" fill="#FFFFFF" font-family="'HelveticaNeue-Light'" font-size="22.4924" rotate="-59.605">I</tspan><tspan x="116.995" y="-66.644" fill="#FFFFFF" font-family="'HelveticaNeue-Light'" font-size="22.4924" rotate="-66.782">C</tspan><tspan x="124.828" y="-86.171" fill="#FFFFFF" font-family="'HelveticaNeue-Light'" font-size="22.4924" rotate="-76.24">A</tspan><tspan x="128.975" y="-104.981" fill="#FFFFFF" font-family="'HelveticaNeue-Light'" font-size="22.4924" rotate="-84.828">T</tspan><tspan x="130.065" y="-122.13" fill="#FFFFFF" font-family="'HelveticaNeue-Light'" font-size="22.4924" rotate="-91.093">I</tspan><tspan x="129.938" y="-132.001" fill="none" font-family="'HelveticaNeue-Light'" font-size="22.4924" rotate="-98.435">O</tspan><tspan x="126.207" y="-153.692" fill="#FFFFFF" font-family="'HelveticaNeue-Light'" font-size="22.4924" rotate="-108.601">N</tspan></text>
	<g>
		<path fill="none" d="M169.944,103.309c-18.36,0-33.643,14.293-36.979,33.205h73.959
			C203.586,117.602,188.303,103.309,169.944,103.309z"/>
		<g>
			<path fill="#FFFFFF" d="M216.084,146.374c0.035-0.799,0.054-1.603,0.054-2.411c0-1.68-0.079-3.339-0.227-4.977v-2.472h-0.28
				c-3.311-24.326-22.581-42.993-45.864-42.993c-25.61,0-46.371,22.584-46.371,50.442s20.761,50.442,46.371,50.442
				c18.651,0,34.73-11.979,42.091-29.249l-8.807-2.303c-6.226,13.291-18.922,22.396-33.575,22.396
				c-20.173,0-36.639-17.252-37.616-38.932h75.231c-0.001,0.019-0.004,0.037-0.004,0.056H216.084z M132.497,136.514
				c3.337-18.913,18.62-33.205,36.979-33.205s33.643,14.293,36.979,33.205H132.497z"/>
		</g>
	</g>
	<circle fill="#D6DA2C" cx="310.464" cy="221.494" r="8.705"/>
</g>
</svg>
