<?xml version="1.0" encoding="utf-8"?>
<!-- Generator: Adobe Illustrator 16.0.0, SVG Export Plug-In . SVG Version: 6.00 Build 0)  -->
<!DOCTYPE svg PUBLIC "-//W3C//DTD SVG 1.1//EN" "http://www.w3.org/Graphics/SVG/1.1/DTD/svg11.dtd">
<svg version="1.1" id="Calque_1" xmlns="http://www.w3.org/2000/svg" xmlns:xlink="http://www.w3.org/1999/xlink" x="0px" y="0px"
	 width="753.089px" height="600px" viewBox="0 0 753.089 600" enable-background="new 0 0 753.089 600" xml:space="preserve">
<g>
	<polygon opacity="0.5" fill="#3C3C3E" points="753.089,600 306.536,600 61.118,346.635 354.86,76.136 	"/>
	<circle fill="#3C3C3E" cx="200.011" cy="202.729" r="200.011"/>
	<g>
		<path fill="#D9E021" d="M115.054,61.353h79.298c55.285,0,95.856,11.498,121.718,34.49c25.856,22.995,38.789,58.948,38.789,107.865
			c0,49.173-12.993,85.286-38.98,108.341c-25.987,23.061-66.496,34.587-121.527,34.587h-79.298V61.353z M153.652,93.072v221.843
			h46.624c39.362,0,68.182-8.914,86.464-26.75c18.277-17.834,27.419-45.986,27.419-84.458c0-38.216-9.142-66.209-27.419-83.98
			c-18.282-17.77-47.102-26.655-86.464-26.655H153.652z"/>
	</g>
	<rect x="111.967" y="127.93" fill="#3C3C3E" width="44" height="157"/>
	<g>
		<path fill="#FFFFFF" d="M126.848,289.686c-20.802,0-37.693-7.354-50.669-22.066c-12.979-14.71-19.466-33.604-19.466-56.688v-8.171
			c0-23.182,6.561-42.299,19.688-57.357c13.125-15.056,29.396-22.585,48.813-22.585c19.514,0,34.596,6.267,45.246,18.797
			c10.647,12.532,15.974,29.398,15.974,50.597v13.817H74.544v4.903c0,18.33,4.629,33.533,13.892,45.619
			c9.262,12.085,22.066,18.126,38.412,18.126c9.807,0,18.821-1.606,27.045-4.83c8.22-3.217,15.056-7.551,20.504-13.001l7.579,12.185
			c-5.646,5.946-13.052,10.874-22.214,14.786C150.597,287.729,139.625,289.686,126.848,289.686z M125.214,137.975
			c-13.671,0-24.916,4.902-33.732,14.709c-8.817,9.808-13.968,22.241-15.452,37.297l0.445,0.892h92.127v-3.715
			c0-14.266-3.74-26.026-11.219-35.292C149.904,142.605,139.182,137.975,125.214,137.975z"/>
	</g>
</g>
</svg>
