<?xml version="1.0" encoding="utf-8"?>
<!-- Generator: Adobe Illustrator 16.0.0, SVG Export Plug-In . SVG Version: 6.00 Build 0)  -->
<!DOCTYPE svg PUBLIC "-//W3C//DTD SVG 1.1//EN" "http://www.w3.org/Graphics/SVG/1.1/DTD/svg11.dtd">
<svg version="1.1" id="Calque_1" xmlns="http://www.w3.org/2000/svg" xmlns:xlink="http://www.w3.org/1999/xlink" x="0px" y="0px"
	 width="515.211px" height="517.789px" viewBox="71.023 24.639 515.211 517.789"
	 enable-background="new 71.023 24.639 515.211 517.789" xml:space="preserve">
<g>
	<polygon opacity="0.5" fill="#3C3C3E" enable-background="new    " points="586.234,542.428 282.513,542.428 115.592,258.553 
		315.379,74.574 	"/>
	<circle fill="#3C3C3E" cx="210.059" cy="160.676" r="136.037"/>
	<g>
		<path fill="#D9E021" d="M152.275,64.518h53.934c37.603,0,65.196,7.82,82.787,23.458c17.584,15.641,26.383,40.094,26.383,73.365
			c0,33.444-8.838,58.007-26.513,73.686c-17.676,15.686-45.228,23.525-82.657,23.525h-53.934V64.518z M178.528,86.092v150.888
			h31.711c26.772,0,46.374-6.063,58.809-18.194c12.431-12.13,18.65-31.278,18.65-57.444c0-25.994-6.219-45.033-18.65-57.12
			c-12.435-12.086-32.036-18.13-58.809-18.13H178.528L178.528,86.092z"/>
	</g>
	<rect x="150.176" y="109.802" fill="#3C3C3E" width="29.926" height="106.781"/>
	<g>
		<path fill="#FFFFFF" d="M160.298,219.819c-14.149,0-25.637-5.002-34.463-15.008c-8.828-10.004-13.24-22.857-13.24-38.557v-5.557
			c0-15.768,4.463-28.769,13.392-39.012c8.926-10.24,19.992-15.361,33.199-15.361c13.273,0,23.53,4.264,30.773,12.785
			c7.242,8.524,10.865,19.995,10.865,34.414v9.398h-76.102v3.334c0,12.466,3.149,22.808,9.45,31.026
			c6.299,8.22,15.008,12.33,26.126,12.33c6.67,0,12.8-1.093,18.395-3.286c5.591-2.188,10.239-5.136,13.946-8.841l5.154,8.287
			c-3.839,4.043-8.877,7.396-15.107,10.056C176.449,218.488,168.987,219.819,160.298,219.819z M159.185,116.633
			c-9.298,0-16.948,3.334-22.942,10.004c-5.997,6.673-9.501,15.126-10.51,25.368l0.303,0.608h62.66v-2.527
			c0-9.704-2.543-17.702-7.632-24.004C175.978,119.781,168.686,116.633,159.185,116.633z"/>
	</g>
</g>
</svg>
