<?xml version="1.0" encoding="utf-8"?>
<!-- Generator: Adobe Illustrator 16.0.0, SVG Export Plug-In . SVG Version: 6.00 Build 0)  -->
<!DOCTYPE svg PUBLIC "-//W3C//DTD SVG 1.1//EN" "http://www.w3.org/Graphics/SVG/1.1/DTD/svg11.dtd">
<svg version="1.1" id="Capa_1" xmlns="http://www.w3.org/2000/svg" xmlns:xlink="http://www.w3.org/1999/xlink" x="0px" y="0px"
	 width="1251px" height="803px" viewBox="-136.5 -106.5 1251 803" enable-background="new -136.5 -106.5 1251 803"
	 xml:space="preserve">
<path fill="#FFFFFF" d="M627.03,37.98V37h-3.284H31.927h-3.284v0.98C9.28,39.311-5.167,54.716-7.463,73.414v3.291v389.978
	c0,7.563,1.968,13.936,5.252,19.678c7.557,13.305,18.711,20.027,34.139,20.027h215.981v54.479h-41.028
	c-10.175,0-18.053,7.913-18.053,18.066c0,10.154,7.878,18.065,18.053,18.065h241.913c10.175,0,18.382-7.911,18.382-18.065
	c0-10.153-8.207-18.066-18.382-18.066h-41.028v-54.479h215.981c15.435,0,26.688-6.724,34.139-20.027
	c3.382-6.021,5.581-12.465,5.581-19.678V76.705v-3.291C661.168,54.717,645.74,39.311,627.03,37.98z M627.03,76.705v389.978
	c0,2.311-0.979,3.291-3.284,3.291H31.927c-2.298,0-3.284-0.98-3.284-3.291V76.705v-3.291H627.03V76.705z"/>
<path fill="#FFFFFF" d="M751.2,362.8v231.4H537.599c-9.83,0-17.8-7.962-17.8-17.8c0-9.839,7.97-17.801,17.8-17.801H733.4V327.2
	H537.599c-19.66,0-35.6,15.939-35.6,35.6V576.4c0,19.66,15.939,35.6,35.6,35.6H769V362.8H751.2z"/>
<g>
	<path fill="#FFFFFF" d="M794.046,544.654h181.581c0.024,0.002,0.055,0,0.068,0c1.902,0,3.441-1.54,3.441-3.443
		c0-0.699-0.203-1.351-0.564-1.889l-41.986-102.681c-0.532-1.294-1.789-2.142-3.188-2.142h-97.122c-1.398,0-2.653,0.848-3.188,2.142
		L790.859,539.91c-0.436,1.06-0.312,2.27,0.329,3.225C791.825,544.083,792.899,544.654,794.046,544.654z M838.586,441.385h92.5
		l39.412,96.385H799.171L838.586,441.385z"/>
	<path fill="#FFFFFF" d="M793.615,561.865h182.443c1.902,0,3.441-1.54,3.441-3.442s-1.539-3.442-3.441-3.442H793.615
		c-1.904,0-3.441,1.54-3.441,3.442S791.711,561.865,793.615,561.865z"/>
	<path fill="#FFFFFF" d="M845.25,462.039h75.73c1.902,0,3.443-1.542,3.443-3.443s-1.541-3.441-3.443-3.441h-75.73
		c-1.904,0-3.441,1.54-3.441,3.441S843.345,462.039,845.25,462.039z"/>
	<path fill="#FFFFFF" d="M838.365,479.25h89.5c1.902,0,3.443-1.542,3.443-3.442c0-1.901-1.541-3.442-3.443-3.442h-89.5
		c-1.904,0-3.441,1.541-3.441,3.442C834.924,477.708,836.461,479.25,838.365,479.25z"/>
	<path fill="#FFFFFF" d="M934.75,489.577H831.48c-1.904,0-3.441,1.541-3.441,3.442s1.537,3.441,3.441,3.441h103.27
		c1.902,0,3.443-1.54,3.443-3.441S936.652,489.577,934.75,489.577z"/>
	<path fill="#FFFFFF" d="M793.615,579.077h182.443c1.902,0,3.441-1.54,3.441-3.442c0-1.904-1.539-3.442-3.441-3.442H793.615
		c-1.904,0-3.441,1.538-3.441,3.442C790.174,577.537,791.711,579.077,793.615,579.077z"/>
	<path fill="#FFFFFF" d="M793.615,596.288h182.443c1.902,0,3.441-1.539,3.441-3.442c0-1.902-1.539-3.441-3.441-3.441H793.615
		c-1.904,0-3.441,1.539-3.441,3.441C790.174,594.749,791.711,596.288,793.615,596.288z"/>
	<path fill="#FFFFFF" d="M793.615,613.5h182.443c1.902,0,3.441-1.54,3.441-3.442s-1.539-3.442-3.441-3.442H793.615
		c-1.904,0-3.441,1.54-3.441,3.442S791.711,613.5,793.615,613.5z"/>
</g>
</svg>
