<?xml version="1.0" encoding="utf-8"?>
<!-- Generator: Adobe Illustrator 16.0.0, SVG Export Plug-In . SVG Version: 6.00 Build 0)  -->
<!DOCTYPE svg PUBLIC "-//W3C//DTD SVG 1.1//EN" "http://www.w3.org/Graphics/SVG/1.1/DTD/svg11.dtd">
<svg version="1.1" id="Calque_1" xmlns="http://www.w3.org/2000/svg" xmlns:xlink="http://www.w3.org/1999/xlink" x="0px" y="0px"
	 width="130px" height="130px" viewBox="0 0 130 130" enable-background="new 0 0 130 130" xml:space="preserve">
<path fill="#D9E021" d="M37.129,0l-8.12,89.316H4.301v20.301c0,11.195,9.103,20.299,20.299,20.299h73.08
	c11.194,0,20.298-9.104,20.282-19.99L126.416,0H37.129z M24.6,121.796c-6.724,0-12.179-5.464-12.179-12.179V97.437h64.957v12.181
	c0,4.566,1.508,8.786,4.062,12.179H24.6z M109.859,109.617c0,6.715-5.472,12.179-12.18,12.179c-6.725,0-12.181-5.464-12.181-12.179
	V89.316H37.161l7.391-81.197h73.094L109.859,109.617z M98.25,48.718H57.158l0.747-8.12h40.962L98.25,48.718z M99.485,32.478H58.634
	l0.746-8.119h40.741L99.485,32.478z M64.517,64.958h-8.833l0.729-8.119h8.723L64.517,64.958z M72.653,56.838h16.843l-0.62,8.119
	H71.924L72.653,56.838z"/>
</svg>
