<?xml version="1.0" encoding="utf-8"?>
<!-- Generator: Adobe Illustrator 16.0.0, SVG Export Plug-In . SVG Version: 6.00 Build 0)  -->
<!DOCTYPE svg PUBLIC "-//W3C//DTD SVG 1.1//EN" "http://www.w3.org/Graphics/SVG/1.1/DTD/svg11.dtd">
<svg version="1.1" id="Calque_1" xmlns="http://www.w3.org/2000/svg" xmlns:xlink="http://www.w3.org/1999/xlink" x="0px" y="0px"
	 width="130px" height="130px" viewBox="0 0 130 130" enable-background="new 0 0 130 130" xml:space="preserve">
<path fill="#D9E027" d="M122.369,40.324l-5.505,5.696L83.821,11.863l5.507-5.696c6.084-6.291,15.945-6.291,22.03,0l11.01,11.388
	C128.445,23.841,128.445,34.035,122.369,40.324z M45.275,108.634c-1.521,1.573-1.521,4.119,0,5.692c1.521,1.58,3.985,1.58,5.505,0
	l60.578-62.614l-5.514-5.695L45.275,108.634z M17.74,80.173c-1.521,1.572-1.521,4.12,0,5.692s3.984,1.572,5.505,0l60.576-62.618
	l-5.504-5.692L17.74,80.173z M89.32,28.936L28.751,91.558c-3.042,3.137-3.035,8.239,0,11.385c3.042,3.144,7.969,3.16,11.018-0.009
	l60.571-62.609L89.32,28.936z M39.755,120.003c-1.863-1.926-2.761-4.372-3.095-6.887c-0.792,0.125-1.589,0.243-2.403,0.243
	c-4.16,0-8.068-1.683-11.011-4.725c-2.943-3.052-4.563-7.085-4.563-11.386c0-0.785,0.114-1.547,0.22-2.311
	c-2.517-0.355-4.844-1.494-6.669-3.381c-0.175-0.181-0.236-0.425-0.396-0.621l-9.505,39.326l37.938-9.819
	C40.104,120.286,39.915,120.168,39.755,120.003z"/>
</svg>
