<?xml version="1.0" encoding="utf-8"?>
<!-- Generator: Adobe Illustrator 16.0.0, SVG Export Plug-In . SVG Version: 6.00 Build 0)  -->
<!DOCTYPE svg PUBLIC "-//W3C//DTD SVG 1.1//EN" "http://www.w3.org/Graphics/SVG/1.1/DTD/svg11.dtd">
<svg version="1.1" id="Calque_1" xmlns="http://www.w3.org/2000/svg" xmlns:xlink="http://www.w3.org/1999/xlink" x="0px" y="0px"
	 width="130px" height="130px" viewBox="0 0 130 130" enable-background="new 0 0 130 130" xml:space="preserve">
<path fill="#D9E021" d="M129.901,60.613c-2.127-32.365-27.993-58.233-60.356-60.36V0.104h-4.322H60.9v0.148
	C28.537,2.379,2.667,28.248,0.541,60.613H0.393v4.322v4.322h0.148c2.127,32.364,27.996,58.229,60.359,60.356v0.151h4.323h4.322
	v-0.151c32.363-2.127,58.229-27.992,60.356-60.356h0.151v-4.322v-4.322H129.901z M40.976,14.235
	c-4.175,5.55-7.641,12.51-10.164,20.445H17.863C23.496,25.889,31.503,18.777,40.976,14.235z M13.341,43.325h15.195
	c-1.157,5.462-1.891,11.261-2.127,17.288H9.202C9.657,54.526,11.092,48.71,13.341,43.325z M9.202,69.257H26.41
	c0.236,6.027,0.97,11.826,2.127,17.288H13.341C11.092,81.159,9.657,75.343,9.202,69.257z M17.863,95.188h12.94
	c2.525,7.936,5.989,14.891,10.173,20.445C31.503,111.092,23.496,103.985,17.863,95.188z M60.9,120.563
	c-8.885-2.372-16.536-11.919-21.179-25.375H60.9V120.563z M60.9,86.545H37.295c-1.221-5.386-1.988-11.202-2.242-17.288H60.9V86.545z
	 M60.9,60.613H35.053c0.253-6.086,1.021-11.903,2.242-17.288H60.9V60.613z M60.9,34.681H39.721
	C44.364,21.221,52.015,11.677,60.9,9.31V34.681z M112.579,34.681H99.646c-2.532-7.935-5.984-14.896-10.18-20.445
	C98.937,18.777,106.949,25.889,112.579,34.681z M69.545,9.31c8.88,2.368,16.536,11.912,21.18,25.371h-21.18V9.31z M69.545,43.325
	h23.602c1.225,5.385,1.977,11.202,2.245,17.288H69.545V43.325z M69.545,69.257h25.847c-0.253,6.086-1.021,11.902-2.245,17.288
	H69.545V69.257z M69.545,120.563V95.188h21.18C86.081,108.645,78.425,118.191,69.545,120.563z M89.467,115.634
	c4.178-5.555,7.647-12.51,10.18-20.445h12.933C106.949,103.985,98.937,111.092,89.467,115.634z M117.104,86.545h-15.195
	c1.158-5.462,1.892-11.261,2.127-17.288h17.205C120.784,75.343,119.349,81.159,117.104,86.545z M104.035,60.613
	c-0.235-6.027-0.969-11.826-2.127-17.288h15.195c2.245,5.385,3.681,11.202,4.137,17.288H104.035z"/>
</svg>
