<?xml version="1.0" encoding="utf-8"?>
<!-- Generator: Adobe Illustrator 16.0.0, SVG Export Plug-In . SVG Version: 6.00 Build 0)  -->
<!DOCTYPE svg PUBLIC "-//W3C//DTD SVG 1.1//EN" "http://www.w3.org/Graphics/SVG/1.1/DTD/svg11.dtd">
<svg version="1.1" id="Calque_1" xmlns="http://www.w3.org/2000/svg" xmlns:xlink="http://www.w3.org/1999/xlink" x="0px" y="0px"
	 width="130px" height="130px" viewBox="0 0 130 130" enable-background="new 0 0 130 130" xml:space="preserve">
<path fill="#D9E027" d="M38.135,73.577c0,14.498,11.752,26.25,26.25,26.25c14.497,0,26.25-11.752,26.25-26.25
	c0-14.498-11.753-26.25-26.25-26.25C49.887,47.327,38.135,59.08,38.135,73.577z M120.923,29.154H92.654
	C90.635,21.077,88.615,13,80.538,13H48.231c-8.077,0-10.096,8.077-12.116,16.154H7.846c-4.442,0-8.077,3.635-8.077,8.077v72.692
	c0,4.442,3.635,8.077,8.077,8.077h113.077c4.442,0,8.077-3.635,8.077-8.077V37.231C129,32.789,125.365,29.154,120.923,29.154z
	 M64.385,109.418c-19.795,0-35.841-16.046-35.841-35.841S44.59,37.735,64.385,37.735s35.841,16.047,35.841,35.842
	S84.18,109.418,64.385,109.418z M120.923,53.385H104.77v-8.077h16.153V53.385z"/>
</svg>
