<?xml version="1.0" encoding="utf-8"?>
<!-- Generator: Adobe Illustrator 16.0.0, SVG Export Plug-In . SVG Version: 6.00 Build 0)  -->
<!DOCTYPE svg PUBLIC "-//W3C//DTD SVG 1.1//EN" "http://www.w3.org/Graphics/SVG/1.1/DTD/svg11.dtd">
<svg version="1.1" id="Calque_1" xmlns="http://www.w3.org/2000/svg" xmlns:xlink="http://www.w3.org/1999/xlink" x="0px" y="0px"
	 width="130px" height="130px" viewBox="0 0 130 130" enable-background="new 0 0 130 130" xml:space="preserve">
<path fill="#D9E027" d="M123.418,12.502v-0.189h-0.636H8.331H7.695v0.189c-3.744,0.258-6.538,3.236-6.982,6.853v0.636v75.417
	c0,1.464,0.38,2.694,1.016,3.806c1.461,2.573,3.619,3.872,6.603,3.872h41.769v10.538h-7.934c-1.968,0-3.492,1.529-3.492,3.493
	s1.524,3.493,3.492,3.493h46.783c1.968,0,3.556-1.529,3.556-3.493s-1.588-3.493-3.556-3.493h-7.934v-10.538h41.768
	c2.985,0,5.161-1.299,6.603-3.872c0.654-1.165,1.079-2.41,1.079-3.806V19.992v-0.636C130.02,15.739,127.036,12.76,123.418,12.502z
	 M123.418,19.992v75.417c0,0.446-0.189,0.637-0.636,0.637H8.331c-0.445,0-0.636-0.19-0.636-0.637V19.992v-0.636h115.723V19.992z"/>
</svg>
