<?xml version="1.0" encoding="utf-8"?>
<!-- Generator: Adobe Illustrator 16.0.0, SVG Export Plug-In . SVG Version: 6.00 Build 0)  -->
<!DOCTYPE svg PUBLIC "-//W3C//DTD SVG 1.1//EN" "http://www.w3.org/Graphics/SVG/1.1/DTD/svg11.dtd">
<svg version="1.1" id="Capa_1" xmlns="http://www.w3.org/2000/svg" xmlns:xlink="http://www.w3.org/1999/xlink" x="0px" y="0px"
	 width="300px" height="300px" viewBox="611.019 338.528 300 300" enable-background="new 611.019 338.528 300 300"
	 xml:space="preserve">
<g opacity="0.6">
	<path fill="#3C3C3E" d="M802.823,446.621c-2.702-5.088-6.042-9.786-9.911-13.989c-4.994-5.427-10.872-10.027-17.406-13.58
		c-6.2-3.372-12.99-5.802-20.178-7.088v-5.99l14.73,0.005v-1.259c0.002-10.785-8.738-19.534-19.531-19.534h-14.214
		c-4.333,0-8.337,1.415-11.578,3.806c-4.823,3.557-7.953,9.277-7.953,15.728v1.251l15.056,0.005v5.937
		c-21.319,3.71-39.199,17.438-48.569,36.165c-4.511,9.015-7.051,19.189-7.051,29.964c0,3.489,0.266,6.917,0.778,10.262
		c1.366,8.918,4.484,17.256,8.991,24.657c1.615,2.65,3.41,5.18,5.365,7.574l140.61,198.496l129.477-48.518L802.823,446.621z"/>
</g>
<g>
	<path fill="#FFFFFF" d="M755.328,411.535v-5.99l14.73,0.005v-1.26c0.004-10.785-8.738-19.534-19.531-19.534h-14.214
		c-10.782,0-19.531,8.749-19.531,19.534v1.252l15.056,0.006v5.937c-31.583,5.496-55.62,32.971-55.62,66.128
		c0,37.127,30.086,67.209,67.2,67.209c37.113,0,67.201-30.082,67.201-67.209C810.621,444.571,786.751,417.162,755.328,411.535z
		 M743.419,529.44c-28.574,0-51.82-23.248-51.82-51.826c0-28.572,23.247-51.813,51.82-51.813c28.572,0,51.821,23.242,51.821,51.813
		C795.24,506.192,771.992,529.44,743.419,529.44z"/>
	<path fill="#FFFFFF" d="M813.597,419.555l-10.897-10.899c-0.97-0.972-2.283-1.518-3.651-1.518c-1.371,0-2.685,0.545-3.653,1.513
		l-8.835,8.837l18.211,18.201l8.826-8.832C815.613,424.839,815.613,421.574,813.597,419.555z"/>
	<path fill="#FFFFFF" d="M743.184,429.066c-26.714,0.123-48.332,21.814-48.332,48.548c0,26.832,21.745,48.57,48.569,48.57
		c26.823,0,48.564-21.732,48.566-48.565h-48.804V429.066z"/>
</g>
</svg>
