<?xml version="1.0" encoding="iso-8859-1"?>
<!-- Generator: Adobe Illustrator 15.1.0, SVG Export Plug-In . SVG Version: 6.00 Build 0)  -->
<!DOCTYPE svg PUBLIC "-//W3C//DTD SVG 1.1//EN" "http://www.w3.org/Graphics/SVG/1.1/DTD/svg11.dtd">
<svg version="1.1" id="BrasD" xmlns="http://www.w3.org/2000/svg" xmlns:xlink="http://www.w3.org/1999/xlink" x="0px" y="0px"
	 width="86.458px" height="211.566px" viewBox="0 0 86.458 211.566" style="enable-background:new 0 0 86.458 211.566;"
	 xml:space="preserve">
<g>
	<path style="fill:#CA9E67;" d="M51.029,209.146c7.484,2.213,16.939-7.436,21.105-21.545c4.166-14.115,1.477-27.352-6.012-29.566
		c-7.482-2.209-16.934,7.441-21.102,21.557S43.547,206.938,51.029,209.146z"/>
	<path style="fill:#CA9E67;" d="M49.1,209.145c7.484,2.211,16.938-7.438,21.105-21.547c4.164-14.113,1.477-27.352-6.012-29.566
		c-7.484-2.207-16.934,7.441-21.104,21.559C38.924,193.703,41.615,206.934,49.1,209.145z"/>
	<linearGradient id="SVGID_1_" gradientUnits="userSpaceOnUse" x1="0" y1="105.7832" x2="86.458" y2="105.7832">
		<stop  offset="0" style="stop-color:#B17F4A"/>
		<stop  offset="0.0761" style="stop-color:#A4723D"/>
		<stop  offset="0.2326" style="stop-color:#8E5D2B"/>
		<stop  offset="0.3974" style="stop-color:#7D4E1F"/>
		<stop  offset="0.5719" style="stop-color:#724317"/>
		<stop  offset="0.7625" style="stop-color:#6B3E12"/>
		<stop  offset="1" style="stop-color:#683C11"/>
	</linearGradient>
	<path style="fill:url(#SVGID_1_);" d="M0,83.838C0,191.062,45.709,211.68,54.609,211.566c9.775-0.117-7.805-34.096,1.275-34.096
		c11.332,0,12.723,11.244,20.826,10.521c10.418-0.93-3.939-21.645-3.939-111.492c0-42.25,32.018-76.5-1.887-76.5
		C44.99,0,0,41.592,0,83.838z"/>
</g>
</svg>
