<?xml version="1.0" encoding="utf-8"?>
<!-- Generator: Adobe Illustrator 18.0.0, SVG Export Plug-In . SVG Version: 6.00 Build 0)  -->
<!DOCTYPE svg PUBLIC "-//W3C//DTD SVG 1.1//EN" "http://www.w3.org/Graphics/SVG/1.1/DTD/svg11.dtd">
<svg version="1.1" id="Capa_1" xmlns="http://www.w3.org/2000/svg" xmlns:xlink="http://www.w3.org/1999/xlink" x="0px" y="0px"
	 viewBox="0 0 64 64" enable-background="new 0 0 64 64" xml:space="preserve">
<g>
	<path d="M34,4.2C18.7,4.2,6.2,16.7,6.2,32S18.7,59.8,34,59.8c15.3,0,27.8-12.5,27.8-27.8S49.4,4.2,34,4.2z M34,56.1
		C20.7,56.1,9.9,45.3,9.9,32S20.7,7.9,34,7.9c13.3,0,24.1,10.8,24.1,24.1S47.3,56.1,34,56.1z"/>
	<path d="M47.8,30H35.9V14.2c0-1-0.8-1.9-1.9-1.9c-1,0-1.9,0.8-1.9,1.9v19.5h15.6c1,0,1.9-0.8,1.9-1.9C49.7,30.8,48.8,30,47.8,30z"
		/>
</g>
</svg>
